<svg id="Layer_1" data-name="Layer 1" xmlns="http://www.w3.org/2000/svg" xmlns:xlink="http://www.w3.org/1999/xlink" viewBox="0 0 940.6 940.6"><defs><style>.cls-1,.cls-129{fill:none;}.cls-2{fill:#1b1f22;stroke:#000;}.cls-129,.cls-2{stroke-miterlimit:10;}.cls-3{clip-path:url(#clip-path);}.cls-4{fill:url(#linear-gradient);}.cls-5{fill:url(#linear-gradient-2);}.cls-6{fill:url(#linear-gradient-3);}.cls-7{fill:url(#linear-gradient-4);}.cls-8{fill:url(#linear-gradient-5);}.cls-9{fill:url(#linear-gradient-6);}.cls-10{fill:url(#linear-gradient-7);}.cls-11{fill:url(#linear-gradient-8);}.cls-12{fill:url(#linear-gradient-9);}.cls-13{fill:url(#linear-gradient-10);}.cls-14{fill:url(#linear-gradient-11);}.cls-15{fill:url(#linear-gradient-12);}.cls-16{fill:url(#linear-gradient-13);}.cls-17{fill:url(#linear-gradient-14);}.cls-18{fill:url(#linear-gradient-15);}.cls-19{fill:url(#linear-gradient-16);}.cls-20{fill:url(#linear-gradient-17);}.cls-21{fill:url(#linear-gradient-18);}.cls-22{fill:url(#linear-gradient-19);}.cls-23{fill:url(#linear-gradient-20);}.cls-24{fill:url(#linear-gradient-21);}.cls-25{fill:url(#linear-gradient-22);}.cls-26{fill:url(#linear-gradient-23);}.cls-27{fill:url(#linear-gradient-24);}.cls-28{fill:url(#linear-gradient-25);}.cls-29{fill:url(#linear-gradient-26);}.cls-30{fill:url(#linear-gradient-27);}.cls-31{fill:url(#linear-gradient-28);}.cls-32{fill:url(#linear-gradient-29);}.cls-33{fill:url(#linear-gradient-30);}.cls-34{fill:url(#linear-gradient-31);}.cls-35{fill:url(#linear-gradient-32);}.cls-36{fill:url(#linear-gradient-33);}.cls-37{fill:url(#linear-gradient-34);}.cls-38{fill:url(#linear-gradient-35);}.cls-39{fill:url(#linear-gradient-36);}.cls-40{fill:url(#linear-gradient-37);}.cls-41{fill:url(#linear-gradient-38);}.cls-42{fill:url(#linear-gradient-39);}.cls-43{fill:url(#linear-gradient-40);}.cls-44{fill:url(#linear-gradient-41);}.cls-45{fill:url(#linear-gradient-42);}.cls-46{fill:url(#linear-gradient-43);}.cls-47{fill:url(#linear-gradient-44);}.cls-48{fill:url(#linear-gradient-45);}.cls-49{fill:url(#linear-gradient-46);}.cls-50{fill:url(#linear-gradient-47);}.cls-51{fill:url(#linear-gradient-48);}.cls-52{fill:url(#linear-gradient-49);}.cls-53{fill:url(#linear-gradient-50);}.cls-54{fill:url(#linear-gradient-51);}.cls-55{fill:url(#linear-gradient-52);}.cls-56{fill:url(#linear-gradient-53);}.cls-57{fill:url(#linear-gradient-54);}.cls-58{fill:url(#linear-gradient-55);}.cls-59{fill:url(#linear-gradient-56);}.cls-60{fill:url(#linear-gradient-57);}.cls-61{fill:url(#linear-gradient-58);}.cls-62{fill:url(#linear-gradient-59);}.cls-63{fill:url(#linear-gradient-60);}.cls-64{fill:url(#linear-gradient-61);}.cls-65{fill:url(#linear-gradient-62);}.cls-66{fill:url(#linear-gradient-63);}.cls-67{fill:url(#linear-gradient-64);}.cls-68{fill:url(#linear-gradient-65);}.cls-69{fill:url(#linear-gradient-66);}.cls-70{fill:url(#linear-gradient-67);}.cls-71{fill:url(#linear-gradient-68);}.cls-72{fill:url(#linear-gradient-69);}.cls-73{fill:url(#linear-gradient-70);}.cls-74{fill:url(#linear-gradient-71);}.cls-75{fill:url(#linear-gradient-72);}.cls-76{fill:url(#linear-gradient-73);}.cls-77{fill:url(#linear-gradient-74);}.cls-78{fill:url(#linear-gradient-75);}.cls-79{fill:url(#linear-gradient-76);}.cls-80{fill:url(#linear-gradient-77);}.cls-81{fill:url(#linear-gradient-78);}.cls-82{fill:url(#linear-gradient-79);}.cls-83{fill:url(#linear-gradient-80);}.cls-84{fill:url(#linear-gradient-81);}.cls-85{fill:url(#linear-gradient-82);}.cls-86{fill:url(#linear-gradient-83);}.cls-87{fill:url(#linear-gradient-84);}.cls-88{fill:url(#linear-gradient-85);}.cls-89{fill:url(#linear-gradient-86);}.cls-90{fill:url(#linear-gradient-87);}.cls-91{fill:url(#linear-gradient-88);}.cls-92{fill:url(#linear-gradient-89);}.cls-93{fill:url(#linear-gradient-90);}.cls-94{fill:url(#linear-gradient-91);}.cls-95{fill:url(#linear-gradient-92);}.cls-96{fill:url(#linear-gradient-93);}.cls-97{fill:url(#linear-gradient-94);}.cls-98{fill:url(#linear-gradient-95);}.cls-99{fill:url(#linear-gradient-96);}.cls-100{fill:url(#linear-gradient-97);}.cls-101{fill:url(#linear-gradient-98);}.cls-102{fill:url(#linear-gradient-99);}.cls-103{fill:url(#linear-gradient-100);}.cls-104{fill:url(#linear-gradient-101);}.cls-105{fill:url(#linear-gradient-102);}.cls-106{fill:url(#linear-gradient-103);}.cls-107{fill:url(#linear-gradient-104);}.cls-108{fill:url(#linear-gradient-105);}.cls-109{fill:url(#linear-gradient-106);}.cls-110{fill:url(#linear-gradient-107);}.cls-111{fill:url(#linear-gradient-108);}.cls-112{fill:url(#linear-gradient-109);}.cls-113{fill:url(#linear-gradient-110);}.cls-114{fill:url(#linear-gradient-111);}.cls-115{fill:url(#linear-gradient-112);}.cls-116{fill:url(#linear-gradient-113);}.cls-117{fill:url(#linear-gradient-114);}.cls-118{fill:url(#linear-gradient-115);}.cls-119{fill:url(#linear-gradient-116);}.cls-120{fill:url(#linear-gradient-117);}.cls-121{fill:url(#linear-gradient-118);}.cls-122{fill:url(#linear-gradient-119);}.cls-123{fill:url(#linear-gradient-120);}.cls-124{fill:url(#linear-gradient-121);}.cls-125{fill:url(#linear-gradient-122);}.cls-126{fill:url(#linear-gradient-123);}.cls-127{fill:url(#linear-gradient-124);}.cls-128{fill:url(#linear-gradient-125);}.cls-129{stroke-width:3px;stroke:url(#linear-gradient-126);}.cls-130{fill:url(#linear-gradient-127);}</style><clipPath id="clip-path"><rect class="cls-1" x="-0.01" y="-0.02" width="940.62" height="940.62"/></clipPath><linearGradient id="linear-gradient" x1="3656.94" y1="2195.44" x2="4101.56" y2="1659.71" gradientTransform="matrix(0.78, -0.63, -0.63, -0.78, -1347.36, 4422.85)" gradientUnits="userSpaceOnUse"><stop offset="0" stop-color="#fffb90"/><stop offset="0.14" stop-color="#fbea78"/><stop offset="0.24" stop-color="#f8dc65"/><stop offset="0.27" stop-color="#e6c758"/><stop offset="0.34" stop-color="#c5a041"/><stop offset="0.4" stop-color="#ad8330"/><stop offset="0.45" stop-color="#9e7226"/><stop offset="0.49" stop-color="#996c22"/><stop offset="0.52" stop-color="#9d7126"/><stop offset="0.56" stop-color="#aa8131"/><stop offset="0.6" stop-color="#be9b42"/><stop offset="0.64" stop-color="#dabe5b"/><stop offset="0.69" stop-color="#fbe878"/><stop offset="0.77" stop-color="#ffa"/><stop offset="0.83" stop-color="#fbe878"/><stop offset="1" stop-color="#a4631b"/></linearGradient><linearGradient id="linear-gradient-2" x1="3714.07" y1="2126.67" x2="4044.59" y2="1728.43" xlink:href="#linear-gradient"/><linearGradient id="linear-gradient-3" x1="4077.8" y1="1746.96" x2="4115.71" y2="1701.27" xlink:href="#linear-gradient"/><linearGradient id="linear-gradient-4" x1="-178.98" y1="760.67" x2="-157.6" y2="734.91" gradientTransform="matrix(0.78, -0.63, -0.63, -0.78, 1354.8, 987.18)" xlink:href="#linear-gradient"/><linearGradient id="linear-gradient-5" x1="4042.63" y1="1712.47" x2="4079.39" y2="1668.18" xlink:href="#linear-gradient"/><linearGradient id="linear-gradient-6" x1="-213.85" y1="726.9" x2="-193.45" y2="702.32" gradientTransform="matrix(0.78, -0.63, -0.63, -0.78, 1354.8, 987.18)" xlink:href="#linear-gradient"/><linearGradient id="linear-gradient-7" x1="3998.42" y1="1688.96" x2="4037.27" y2="1642.15" xlink:href="#linear-gradient"/><linearGradient id="linear-gradient-8" x1="-256.53" y1="702.53" x2="-234.92" y2="676.49" gradientTransform="matrix(0.78, -0.63, -0.63, -0.78, 1354.8, 987.18)" xlink:href="#linear-gradient"/><linearGradient id="linear-gradient-9" x1="3949.99" y1="1671.9" x2="3989.99" y2="1623.7" xlink:href="#linear-gradient"/><linearGradient id="linear-gradient-10" x1="-303.57" y1="685.19" x2="-281.07" y2="658.09" gradientTransform="matrix(0.78, -0.63, -0.63, -0.78, 1354.8, 987.18)" xlink:href="#linear-gradient"/><linearGradient id="linear-gradient-11" x1="3898.5" y1="1662.53" x2="3938.87" y2="1613.88" xlink:href="#linear-gradient"/><linearGradient id="linear-gradient-12" x1="-353.23" y1="675.31" x2="-330.64" y2="648.08" gradientTransform="matrix(0.78, -0.63, -0.63, -0.78, 1354.8, 987.18)" xlink:href="#linear-gradient"/><linearGradient id="linear-gradient-13" x1="3846.02" y1="1660.72" x2="3885.94" y2="1612.62" xlink:href="#linear-gradient"/><linearGradient id="linear-gradient-14" x1="-403.93" y1="673.29" x2="-381.8" y2="646.62" gradientTransform="matrix(0.78, -0.63, -0.63, -0.78, 1354.8, 987.18)" xlink:href="#linear-gradient"/><linearGradient id="linear-gradient-15" x1="3794.46" y1="1666.82" x2="3833.17" y2="1620.17" xlink:href="#linear-gradient"/><linearGradient id="linear-gradient-16" x1="-453.97" y1="679.38" x2="-432.7" y2="653.75" gradientTransform="matrix(0.78, -0.63, -0.63, -0.78, 1354.8, 987.18)" xlink:href="#linear-gradient"/><linearGradient id="linear-gradient-17" x1="3745.34" y1="1680.65" x2="3782.08" y2="1636.37" xlink:href="#linear-gradient"/><linearGradient id="linear-gradient-18" x1="-501.88" y1="693.56" x2="-481.7" y2="669.25" gradientTransform="matrix(0.78, -0.63, -0.63, -0.78, 1354.8, 987.18)" xlink:href="#linear-gradient"/><linearGradient id="linear-gradient-19" x1="3699.98" y1="1701.77" x2="3734.3" y2="1660.41" xlink:href="#linear-gradient"/><linearGradient id="linear-gradient-20" x1="-546.22" y1="715.44" x2="-527.34" y2="692.69" gradientTransform="matrix(0.78, -0.63, -0.63, -0.78, 1354.8, 987.18)" xlink:href="#linear-gradient"/><linearGradient id="linear-gradient-21" x1="3659.59" y1="1729.51" x2="3691.77" y2="1690.73" xlink:href="#linear-gradient"/><linearGradient id="linear-gradient-22" x1="-585.64" y1="744.03" x2="-567.94" y2="722.7" gradientTransform="matrix(0.78, -0.63, -0.63, -0.78, 1354.8, 987.18)" xlink:href="#linear-gradient"/><linearGradient id="linear-gradient-23" x1="3626.24" y1="1764.74" x2="3657.56" y2="1727" xlink:href="#linear-gradient"/><linearGradient id="linear-gradient-24" x1="-618.63" y1="779.15" x2="-601.32" y2="758.29" gradientTransform="matrix(0.78, -0.63, -0.63, -0.78, 1354.8, 987.18)" xlink:href="#linear-gradient"/><linearGradient id="linear-gradient-25" x1="3600.53" y1="1809.04" x2="3633.74" y2="1769.03" xlink:href="#linear-gradient"/><linearGradient id="linear-gradient-26" x1="-644.18" y1="821.75" x2="-625.98" y2="799.83" gradientTransform="matrix(0.78, -0.63, -0.63, -0.78, 1354.8, 987.18)" xlink:href="#linear-gradient"/><linearGradient id="linear-gradient-27" x1="3581.6" y1="1858.31" x2="3617.14" y2="1815.49" xlink:href="#linear-gradient"/><linearGradient id="linear-gradient-28" x1="-662.69" y1="869.12" x2="-643.22" y2="845.66" gradientTransform="matrix(0.78, -0.63, -0.63, -0.78, 1354.8, 987.18)" xlink:href="#linear-gradient"/><linearGradient id="linear-gradient-29" x1="3570.97" y1="1910.88" x2="3608.59" y2="1865.54" xlink:href="#linear-gradient"/><linearGradient id="linear-gradient-30" x1="-673.28" y1="919.51" x2="-652.5" y2="894.48" gradientTransform="matrix(0.78, -0.63, -0.63, -0.78, 1354.8, 987.18)" xlink:href="#linear-gradient"/><linearGradient id="linear-gradient-31" x1="3568.65" y1="1964.53" x2="3607.87" y2="1917.28" xlink:href="#linear-gradient"/><linearGradient id="linear-gradient-32" x1="-675.55" y1="971.1" x2="-653.7" y2="944.77" gradientTransform="matrix(0.78, -0.63, -0.63, -0.78, 1354.8, 987.18)" xlink:href="#linear-gradient"/><linearGradient id="linear-gradient-33" x1="3574.89" y1="2017.41" x2="3615.27" y2="1968.76" xlink:href="#linear-gradient"/><linearGradient id="linear-gradient-34" x1="-669.18" y1="1021.85" x2="-646.85" y2="994.95" gradientTransform="matrix(0.78, -0.63, -0.63, -0.78, 1354.8, 987.18)" xlink:href="#linear-gradient"/><linearGradient id="linear-gradient-35" x1="3589.89" y1="2067.51" x2="3630.28" y2="2018.85" xlink:href="#linear-gradient"/><linearGradient id="linear-gradient-36" x1="-654.35" y1="1070.32" x2="-631.99" y2="1043.38" gradientTransform="matrix(0.78, -0.63, -0.63, -0.78, 1354.8, 987.18)" xlink:href="#linear-gradient"/><linearGradient id="linear-gradient-37" x1="3612.86" y1="2113.62" x2="3652.46" y2="2065.9" xlink:href="#linear-gradient"/><linearGradient id="linear-gradient-38" x1="-631.58" y1="1115.19" x2="-609.43" y2="1088.5" gradientTransform="matrix(0.78, -0.63, -0.63, -0.78, 1354.8, 987.18)" xlink:href="#linear-gradient"/><linearGradient id="linear-gradient-39" x1="3642.75" y1="2154.07" x2="3680.67" y2="2108.38" xlink:href="#linear-gradient"/><linearGradient id="linear-gradient-40" x1="-601.91" y1="1154.75" x2="-580.53" y2="1128.99" gradientTransform="matrix(0.78, -0.63, -0.63, -0.78, 1354.8, 987.18)" xlink:href="#linear-gradient"/><linearGradient id="linear-gradient-41" x1="3679.09" y1="2187.16" x2="3715.85" y2="2142.86" xlink:href="#linear-gradient"/><linearGradient id="linear-gradient-42" x1="-566.06" y1="1187.34" x2="-545.67" y2="1162.77" gradientTransform="matrix(0.78, -0.63, -0.63, -0.78, 1354.8, 987.18)" xlink:href="#linear-gradient"/><linearGradient id="linear-gradient-43" x1="3721.19" y1="2213.17" x2="3760.03" y2="2166.36" xlink:href="#linear-gradient"/><linearGradient id="linear-gradient-44" x1="-524.59" y1="1213.17" x2="-502.98" y2="1187.13" gradientTransform="matrix(0.78, -0.63, -0.63, -0.78, 1354.8, 987.18)" xlink:href="#linear-gradient"/><linearGradient id="linear-gradient-45" x1="3768.48" y1="2231.63" x2="3808.48" y2="2183.44" xlink:href="#linear-gradient"/><linearGradient id="linear-gradient-46" x1="-478.44" y1="1231.57" x2="-455.94" y2="1204.47" gradientTransform="matrix(0.78, -0.63, -0.63, -0.78, 1354.8, 987.18)" xlink:href="#linear-gradient"/><linearGradient id="linear-gradient-47" x1="3819.59" y1="2241.46" x2="3859.97" y2="2192.81" xlink:href="#linear-gradient"/><linearGradient id="linear-gradient-48" x1="-428.87" y1="1241.58" x2="-406.28" y2="1214.35" gradientTransform="matrix(0.78, -0.63, -0.63, -0.78, 1354.8, 987.18)" xlink:href="#linear-gradient"/><linearGradient id="linear-gradient-49" x1="3872.53" y1="2242.71" x2="3912.45" y2="2194.61" xlink:href="#linear-gradient"/><linearGradient id="linear-gradient-50" x1="-377.71" y1="1243.03" x2="-355.58" y2="1216.37" gradientTransform="matrix(0.78, -0.63, -0.63, -0.78, 1354.8, 987.18)" xlink:href="#linear-gradient"/><linearGradient id="linear-gradient-51" x1="3925.3" y1="2235.15" x2="3964.01" y2="2188.51" xlink:href="#linear-gradient"/><linearGradient id="linear-gradient-52" x1="-326.81" y1="1235.9" x2="-305.54" y2="1210.27" gradientTransform="matrix(0.78, -0.63, -0.63, -0.78, 1354.8, 987.18)" xlink:href="#linear-gradient"/><linearGradient id="linear-gradient-53" x1="3976.39" y1="2218.96" x2="4013.14" y2="2174.67" xlink:href="#linear-gradient"/><linearGradient id="linear-gradient-54" x1="-277.81" y1="1220.4" x2="-257.63" y2="1196.09" gradientTransform="matrix(0.78, -0.63, -0.63, -0.78, 1354.8, 987.18)" xlink:href="#linear-gradient"/><linearGradient id="linear-gradient-55" x1="4024.17" y1="2194.94" x2="4058.51" y2="2153.57" xlink:href="#linear-gradient"/><linearGradient id="linear-gradient-56" x1="-232.17" y1="1196.97" x2="-213.29" y2="1174.22" gradientTransform="matrix(0.78, -0.63, -0.63, -0.78, 1354.8, 987.18)" xlink:href="#linear-gradient"/><linearGradient id="linear-gradient-57" x1="4066.71" y1="2164.61" x2="4098.89" y2="2125.84" xlink:href="#linear-gradient"/><linearGradient id="linear-gradient-58" x1="-191.57" y1="1166.98" x2="-173.87" y2="1145.64" gradientTransform="matrix(0.78, -0.63, -0.63, -0.78, 1354.8, 987.18)" xlink:href="#linear-gradient"/><linearGradient id="linear-gradient-59" x1="4100.91" y1="2128.33" x2="4132.24" y2="2090.59" xlink:href="#linear-gradient"/><linearGradient id="linear-gradient-60" x1="-158.18" y1="1131.38" x2="-140.87" y2="1110.52" gradientTransform="matrix(0.78, -0.63, -0.63, -0.78, 1354.8, 987.18)" xlink:href="#linear-gradient"/><linearGradient id="linear-gradient-61" x1="4124.72" y1="2086.3" x2="4157.94" y2="2046.29" xlink:href="#linear-gradient"/><linearGradient id="linear-gradient-62" x1="-133.52" y1="1089.83" x2="-115.33" y2="1067.91" gradientTransform="matrix(0.78, -0.63, -0.63, -0.78, 1354.8, 987.18)" xlink:href="#linear-gradient"/><linearGradient id="linear-gradient-63" x1="4141.32" y1="2039.85" x2="4176.87" y2="1997.02" xlink:href="#linear-gradient"/><linearGradient id="linear-gradient-64" x1="-116.29" y1="1044" x2="-96.82" y2="1020.54" gradientTransform="matrix(0.78, -0.63, -0.63, -0.78, 1354.8, 987.18)" xlink:href="#linear-gradient"/><linearGradient id="linear-gradient-65" x1="4149.87" y1="1989.79" x2="4187.49" y2="1944.46" xlink:href="#linear-gradient"/><linearGradient id="linear-gradient-66" x1="-107.01" y1="995.17" x2="-86.24" y2="970.14" gradientTransform="matrix(0.78, -0.63, -0.63, -0.78, 1354.8, 987.18)" xlink:href="#linear-gradient"/><linearGradient id="linear-gradient-67" x1="4150.6" y1="1938.05" x2="4189.81" y2="1890.8" xlink:href="#linear-gradient"/><linearGradient id="linear-gradient-68" x1="-105.81" y1="944.89" x2="-83.96" y2="918.56" gradientTransform="matrix(0.78, -0.63, -0.63, -0.78, 1354.8, 987.18)" xlink:href="#linear-gradient"/><linearGradient id="linear-gradient-69" x1="4143.2" y1="1886.57" x2="4183.57" y2="1837.92" xlink:href="#linear-gradient"/><linearGradient id="linear-gradient-70" x1="-112.66" y1="894.71" x2="-90.33" y2="867.81" gradientTransform="matrix(0.78, -0.63, -0.63, -0.78, 1354.8, 987.18)" xlink:href="#linear-gradient"/><linearGradient id="linear-gradient-71" x1="4128.18" y1="1836.49" x2="4168.57" y2="1787.82" xlink:href="#linear-gradient"/><linearGradient id="linear-gradient-72" x1="-127.52" y1="846.28" x2="-105.15" y2="819.33" gradientTransform="matrix(0.78, -0.63, -0.63, -0.78, 1354.8, 987.18)" xlink:href="#linear-gradient"/><linearGradient id="linear-gradient-73" x1="4106" y1="1789.43" x2="4145.59" y2="1741.72" xlink:href="#linear-gradient"/><linearGradient id="linear-gradient-74" x1="-150.07" y1="801.16" x2="-127.92" y2="774.47" gradientTransform="matrix(0.78, -0.63, -0.63, -0.78, 1354.8, 987.18)" xlink:href="#linear-gradient"/><linearGradient id="linear-gradient-75" x1="3581.58" y1="2291.04" x2="4163.92" y2="1589.38" xlink:href="#linear-gradient"/><linearGradient id="linear-gradient-76" x1="3370.27" y1="2536.51" x2="4355.85" y2="1349" xlink:href="#linear-gradient"/><linearGradient id="linear-gradient-77" x1="3392.68" y1="2511.8" x2="4337.13" y2="1373.84" xlink:href="#linear-gradient"/><linearGradient id="linear-gradient-78" x1="3649.03" y1="2443.03" x2="3801.07" y2="2259.84" xlink:href="#linear-gradient"/><linearGradient id="linear-gradient-79" x1="3412.64" y1="2244.69" x2="3564.67" y2="2061.51" xlink:href="#linear-gradient"/><linearGradient id="linear-gradient-80" x1="3359.13" y1="1940.79" x2="3511.1" y2="1757.69" xlink:href="#linear-gradient"/><linearGradient id="linear-gradient-81" x1="3513.38" y1="1673.62" x2="3665.36" y2="1490.49" xlink:href="#linear-gradient"/><linearGradient id="linear-gradient-82" x1="3803.39" y1="1568.03" x2="3955.3" y2="1384.99" xlink:href="#linear-gradient"/><linearGradient id="linear-gradient-83" x1="4093.28" y1="1673.57" x2="4245.23" y2="1490.49" xlink:href="#linear-gradient"/><linearGradient id="linear-gradient-84" x1="4247.54" y1="1940.79" x2="4399.46" y2="1757.75" xlink:href="#linear-gradient"/><linearGradient id="linear-gradient-85" x1="4193.97" y1="2244.65" x2="4345.93" y2="2061.55" xlink:href="#linear-gradient"/><linearGradient id="linear-gradient-86" x1="3957.56" y1="2442.99" x2="4109.56" y2="2259.83" xlink:href="#linear-gradient"/><linearGradient id="linear-gradient-87" x1="3677.51" y1="2433.4" x2="3725.88" y2="2375.12" xlink:href="#linear-gradient"/><linearGradient id="linear-gradient-88" x1="3711.25" y1="2360.76" x2="3744.93" y2="2320.19" xlink:href="#linear-gradient"/><linearGradient id="linear-gradient-89" x1="3412.7" y1="2207.77" x2="3461.07" y2="2149.49" xlink:href="#linear-gradient"/><linearGradient id="linear-gradient-90" x1="3481.28" y1="2167.01" x2="3514.95" y2="2126.45" xlink:href="#linear-gradient"/><linearGradient id="linear-gradient-91" x1="3354.88" y1="1864.71" x2="3403.25" y2="1806.42" xlink:href="#linear-gradient"/><linearGradient id="linear-gradient-92" x1="3429.63" y1="1870.77" x2="3463.3" y2="1830.2" xlink:href="#linear-gradient"/><linearGradient id="linear-gradient-93" x1="3580.48" y1="1610.66" x2="3614.15" y2="1570.08" xlink:href="#linear-gradient"/><linearGradient id="linear-gradient-94" x1="3858.9" y1="1448.2" x2="3907.24" y2="1389.95" xlink:href="#linear-gradient"/><linearGradient id="linear-gradient-95" x1="3863.24" y1="1508.35" x2="3896.91" y2="1467.79" xlink:href="#linear-gradient"/><linearGradient id="linear-gradient-96" x1="4184.89" y1="1569.68" x2="4233.25" y2="1511.41" xlink:href="#linear-gradient"/><linearGradient id="linear-gradient-97" x1="4145.61" y1="1611.73" x2="4179.27" y2="1571.17" xlink:href="#linear-gradient"/><linearGradient id="linear-gradient-98" x1="4356.56" y1="1872.26" x2="4404.91" y2="1814" xlink:href="#linear-gradient"/><linearGradient id="linear-gradient-99" x1="4295.46" y1="1872.45" x2="4329.11" y2="1831.9" xlink:href="#linear-gradient"/><linearGradient id="linear-gradient-100" x1="4293.56" y1="2214.43" x2="4341.93" y2="2156.15" xlink:href="#linear-gradient"/><linearGradient id="linear-gradient-101" x1="4242.68" y1="2168.48" x2="4276.33" y2="2127.93" xlink:href="#linear-gradient"/><linearGradient id="linear-gradient-102" x1="4025.39" y1="2436.02" x2="4073.74" y2="2377.77" xlink:href="#linear-gradient"/><linearGradient id="linear-gradient-103" x1="4011.95" y1="2361.35" x2="4045.62" y2="2320.78" xlink:href="#linear-gradient"/><linearGradient id="linear-gradient-104" x1="-362.21" y1="1545.45" x2="-278.07" y2="1444.07" gradientTransform="matrix(0.78, -0.63, -0.63, -0.78, 1354.8, 987.18)" xlink:href="#linear-gradient"/><linearGradient id="linear-gradient-105" x1="-488.97" y1="1561.21" x2="-380.03" y2="1429.95" gradientTransform="matrix(0.78, -0.63, -0.63, -0.78, 1354.8, 987.18)" xlink:href="#linear-gradient"/><linearGradient id="linear-gradient-106" x1="-730.94" y1="1465.06" x2="-619.48" y2="1330.78" gradientTransform="matrix(0.78, -0.63, -0.63, -0.78, 1354.8, 987.18)" xlink:href="#linear-gradient"/><linearGradient id="linear-gradient-107" x1="-831.42" y1="1382.62" x2="-720.19" y2="1248.6" gradientTransform="matrix(0.78, -0.63, -0.63, -0.78, 1354.8, 987.18)" xlink:href="#linear-gradient"/><linearGradient id="linear-gradient-108" x1="-965.82" y1="1159.7" x2="-857.1" y2="1028.7" gradientTransform="matrix(0.78, -0.63, -0.63, -0.78, 1354.8, 987.18)" xlink:href="#linear-gradient"/><linearGradient id="linear-gradient-109" x1="-975.07" y1="1032.66" x2="-891.51" y2="931.99" gradientTransform="matrix(0.78, -0.63, -0.63, -0.78, 1354.8, 987.18)" xlink:href="#linear-gradient"/><linearGradient id="linear-gradient-110" x1="-926.71" y1="789.23" x2="-833.65" y2="677.1" gradientTransform="matrix(0.78, -0.63, -0.63, -0.78, 1354.8, 987.18)" xlink:href="#linear-gradient"/><linearGradient id="linear-gradient-111" x1="-857.91" y1="673.84" x2="-772.02" y2="570.35" gradientTransform="matrix(0.78, -0.63, -0.63, -0.78, 1354.8, 987.18)" xlink:href="#linear-gradient"/><linearGradient id="linear-gradient-112" x1="-657.98" y1="501.23" x2="-578.16" y2="405.05" gradientTransform="matrix(0.78, -0.63, -0.63, -0.78, 1354.8, 987.18)" xlink:href="#linear-gradient"/><linearGradient id="linear-gradient-113" x1="-557.61" y1="468.48" x2="-456.28" y2="346.38" gradientTransform="matrix(0.78, -0.63, -0.63, -0.78, 1354.8, 987.18)" xlink:href="#linear-gradient"/><linearGradient id="linear-gradient-114" x1="-307.53" y1="472.81" x2="-206.43" y2="350.99" gradientTransform="matrix(0.78, -0.63, -0.63, -0.78, 1354.8, 987.18)" xlink:href="#linear-gradient"/><linearGradient id="linear-gradient-115" x1="-196.98" y1="525.74" x2="-82.99" y2="388.41" gradientTransform="matrix(0.78, -0.63, -0.63, -0.78, 1354.8, 987.18)" xlink:href="#linear-gradient"/><linearGradient id="linear-gradient-116" x1="0.91" y1="693.48" x2="114.83" y2="556.22" gradientTransform="matrix(0.78, -0.63, -0.63, -0.78, 1354.8, 987.18)" xlink:href="#linear-gradient"/><linearGradient id="linear-gradient-117" x1="74.94" y1="791.08" x2="175.63" y2="669.77" gradientTransform="matrix(0.78, -0.63, -0.63, -0.78, 1354.8, 987.18)" xlink:href="#linear-gradient"/><linearGradient id="linear-gradient-118" x1="119.3" y1="1037.17" x2="220.39" y2="915.36" gradientTransform="matrix(0.78, -0.63, -0.63, -0.78, 1354.8, 987.18)" xlink:href="#linear-gradient"/><linearGradient id="linear-gradient-119" x1="107.03" y1="1142.63" x2="187.01" y2="1046.27" gradientTransform="matrix(0.78, -0.63, -0.63, -0.78, 1354.8, 987.18)" xlink:href="#linear-gradient"/><linearGradient id="linear-gradient-120" x1="-30.3" y1="1368.04" x2="55.45" y2="1264.73" gradientTransform="matrix(0.78, -0.63, -0.63, -0.78, 1354.8, 987.18)" xlink:href="#linear-gradient"/><linearGradient id="linear-gradient-121" x1="-129.99" y1="1458.47" x2="-36.71" y2="1346.08" gradientTransform="matrix(0.78, -0.63, -0.63, -0.78, 1354.8, 987.18)" xlink:href="#linear-gradient"/><linearGradient id="linear-gradient-122" x1="-402.31" y1="1642.45" x2="-354.94" y2="1585.38" gradientTransform="matrix(0.78, -0.63, -0.63, -0.78, 1354.8, 987.18)" xlink:href="#linear-gradient"/><linearGradient id="linear-gradient-123" x1="-443.63" y1="1618.5" x2="-412.19" y2="1580.63" gradientTransform="matrix(0.78, -0.63, -0.63, -0.78, 1354.8, 987.18)" xlink:href="#linear-gradient"/><linearGradient id="linear-gradient-124" x1="260.85" y1="1082.11" x2="297.79" y2="1037.61" gradientTransform="matrix(0.78, -0.63, -0.63, -0.78, 1354.8, 987.18)" xlink:href="#linear-gradient"/><linearGradient id="linear-gradient-125" x1="258.58" y1="1027.58" x2="289.03" y2="990.88" gradientTransform="matrix(0.78, -0.63, -0.63, -0.78, 1354.8, 987.18)" xlink:href="#linear-gradient"/><linearGradient id="linear-gradient-126" x1="-74.89" y1="580.63" x2="1015.49" y2="359.01" gradientTransform="matrix(1, 0, 0, -1, 0, 940.11)" xlink:href="#linear-gradient"/><linearGradient id="linear-gradient-127" x1="306.78" y1="422.13" x2="632.64" y2="422.13" gradientTransform="matrix(1, 0, 0, -1, 0, 940.11)" xlink:href="#linear-gradient"/></defs><title>JavaScript icon]-02</title><rect class="cls-2" x="-0.01" y="-0.02" width="940.62" height="940.62"/><g id="Layer_6" data-name="Layer 6"><g class="cls-3"><path class="cls-4" d="M684.38,760.43A348,348,0,1,1,459.71,141.18c191.86-3.81,351.05,149.19,354.86,341.05h0C816.79,594.23,765.57,695.11,684.38,760.43ZM260.53,231.91A335.81,335.81,0,0,0,229,260.78,329.55,329.55,0,0,0,473.14,818.62c181.69-3.6,326.56-154.35,323-336h0c-3.61-181.67-154.35-326.54-336-322.94A327.14,327.14,0,0,0,260.53,231.91Z"/><path class="cls-5" d="M628.4,691.07A256.78,256.78,0,0,1,471.74,747.8c-142.62,2.83-261-110.9-263.78-253.53s110.9-261,253.53-263.8S722.45,341.38,725.27,484a257,257,0,0,1-72.13,184.4A260,260,0,0,1,628.4,691.07ZM310.51,294.67c-58.2,46.83-94.91,119.13-93.32,199.42C219.93,631.63,334,741.3,471.55,738.57A249.47,249.47,0,0,0,716,484.19h0C713.31,346.66,599.2,237,461.67,239.71A248.17,248.17,0,0,0,310.51,294.67Z"/><path class="cls-6" d="M786.77,524.07l-.2.16c-3.74,2.95-8.73,5.17-14.82,6.62-9.46,2.25-22.14,2.56-33.92.84l-2.25-.33,1.95-14.58a57.93,57.93,0,0,0,.8-9.06l.75-24.21,2.21,0c11.89-.14,24.37,1.85,33.36,5.35,12.64,4.85,19.43,12.77,19.11,22.31C793.76,515.9,791.35,520.39,786.77,524.07Zm-46,3.35c10.57,1.3,21.6.92,29.93-1.06a33.48,33.48,0,0,0,13-5.75c3.7-3,5.43-6.05,5.42-9.55.33-10.09-10-15.56-16.16-17.92-7.93-3.08-18.79-4.92-29.43-5l-.61,19.65a62.28,62.28,0,0,1-.84,9.67Z"/><path class="cls-7" d="M741,494.22c11.81.12,31.19,4.51,30.85,15.54,0,5.45-5.69,8.72-12.22,10.33a61.76,61.76,0,0,1-20.39,1C740.89,512.2,740.66,503.18,741,494.22Z"/><path class="cls-8" d="M778.57,577.51a21.15,21.15,0,0,1-2.64,1.81c-4,2.24-9.35,3.56-15.89,3.94-9.79.54-22.37-1.38-33.67-5.15l-2.22-.74,4.34-12.54,6.19-26.37,1-7.56,2.36.38c11.76,1.92,23.84,6.06,32.31,11.09,11.57,6.91,16.74,15.88,14.54,25.27A17.77,17.77,0,0,1,778.57,577.51Zm-48.52-3.08c10.17,3.12,21.13,4.68,29.73,4.21,5.75-.33,10.55-1.48,13.87-3.34a13.47,13.47,0,0,0,6.71-8.72c2.28-9.8-6.79-16.89-12.41-20.25-7.44-4.41-17.89-8.11-28.34-10.08l-.39,3-6.3,26.83Z"/><path class="cls-9" d="M736.26,541.86c11.61,2.16,29.83,9.81,27.3,20.56-1.25,5.3-6.83,7.68-13.45,8.15s-14.62-.93-20.26-2.62C732.37,559.37,734.05,550.55,736.26,541.86Z"/><path class="cls-10" d="M761.3,628.34c-5,4-12.53,5.64-21.88,4.54-9.8-1.21-21.89-5.32-32.35-11L705,620.75l3.94-6.78,6.69-14.72c.54-1.22,1.11-2.44,1.68-3.67,1-2.05,1.92-4.11,2.77-6.2L724.29,577l2.2.77c11.24,3.94,22.37,10.12,29.76,16.53A38.91,38.91,0,0,1,766.44,607a18.2,18.2,0,0,1-.07,14.77A17.76,17.76,0,0,1,761.3,628.34Zm-49.93-9.42c9.47,4.84,20,8.3,28.61,9.37,6.49.77,18,.68,22.2-8.43a13.47,13.47,0,0,0,0-11c-1.68-3.66-4.71-7.43-9-11.12-6.5-5.64-16.12-11.1-26.07-14.86L724.4,591c-.92,2.29-1.92,4.42-2.91,6.55-.56,1.2-1.12,2.4-1.66,3.61L713,616.06Z"/><path class="cls-11" d="M723,587.85a61.93,61.93,0,0,1,17.67,10.35c5,4.45,7.91,9.73,5.66,14.68-4.6,10-23.7,5-34.21-.45C715.68,604.2,719.91,596.25,723,587.85Z"/><path class="cls-12" d="M735.41,675.54c-5.85,4.7-14.63,5.58-25.29,2.38-13.3-3.94-25.16-12.64-29.64-16.19l-1.72-1.36,14-19.56a68,68,0,0,0,5.73-9l6.65-11.48,2,1.12c10.37,5.83,20.21,13.84,26.33,21.42,3.94,4.87,6.53,9.68,7.68,14.3,1.47,5.65.64,10.76-2.41,14.77A17.67,17.67,0,0,1,735.41,675.54ZM685.1,659.46c8.5,6.44,18.22,11.63,26.35,14,6.33,1.9,17.8,3.89,23.62-4.29,2.23-2.94,2.77-6.58,1.65-10.89a33.44,33.44,0,0,0-6.8-12.54c-5.39-6.67-13.88-13.72-23-19.15l-4.33,7.47a69.7,69.7,0,0,1-6.06,9.47Z"/><path class="cls-13" d="M701.82,630.76A61.59,61.59,0,0,1,717.36,644c4.24,5.31,6.61,11.29,3.31,15.62-6.43,9-24.43.6-33.84-6.54C691.94,645.71,697.69,638.76,701.82,630.76Z"/><path class="cls-14" d="M702,717.49c-7,5.64-17,5.53-28.39-.24-8.66-4.32-18.55-12.22-26.45-21.11l-1.49-1.68,17.54-16.57,15.7-18,1.73,1.42c9.21,7.54,17.49,17.11,22.15,25.59,6.59,11.86,6.75,22.34.45,29.5A16.36,16.36,0,0,1,702,717.49Zm-49.88-22.76c7.24,7.79,15.93,14.59,23.55,18.4,5.94,3,16.88,7,24.25.07,6.49-7.39,2.06-18.26-1.17-24.07-4.11-7.47-11.24-15.88-19.32-22.82L666.5,681.1Z"/><path class="cls-15" d="M673.59,669.42c9,7.69,21,23.55,13.75,31.86-8,7.59-24.34-3.82-32.38-12.47l9.8-9.23Z"/><path class="cls-16" d="M660.3,753.67l-.42.34c-3.82,3.07-8.84,4.06-14.49,2.83a37.82,37.82,0,0,1-14.57-7.11c-7.8-5.8-16.19-15.32-22.44-25.46l-1.2-1.94,11.16-7.08a65.33,65.33,0,0,0,8.71-6l19.06-14.87,1.44,1.67c3.73,4.33,12.89,15.83,17.36,29C669.26,737.61,667.62,747.78,660.3,753.67Zm-3.15-3.39c8.1-6.3,5.55-17.57,3.4-23.81-2.74-8.05-8.31-17.55-15.08-25.78L630,712.78a68.78,68.78,0,0,1-9.19,6.39l-7.25,4.6c5.8,8.93,13.18,17.14,20.05,22.25,4.49,3.34,8.78,5.46,12.78,6.29C650.72,753.27,654.36,752.53,657.15,750.28Z"/><path class="cls-17" d="M639.16,702.69c7.51,9.12,16.59,26.77,7.88,33.55-4.2,3.47-10.27,1.34-15.74-2.69a61.55,61.55,0,0,1-13.84-15C625.28,714.1,632,708.07,639.16,702.69Z"/><path class="cls-18" d="M614.28,781.32a18.16,18.16,0,0,1-17.9,2.77,38.91,38.91,0,0,1-13.27-9.71c-6.7-7.14-13.32-18-17.7-29.08l-.86-2.17,12.37-4.78c1.94-.87,3.94-1.91,5.94-3,1.21-.62,2.42-1.25,3.64-1.85l14.63-7.38,6.42-4.08,1.22,2c6.09,10.23,10.67,22.15,12.27,31.88C622.88,767.52,620.48,776.34,614.28,781.32ZM570.6,745.76c4.15,9.79,10,19.18,15.88,25.46A34.35,34.35,0,0,0,598,779.78a13.41,13.41,0,0,0,10.92-.51c8.95-4.54,8.56-16,7.53-22.52-1.4-8.54-5.28-18.93-10.49-28.2l-2.59,1.64-14.84,7.5c-1.21.6-2.4,1.21-3.58,1.82-2.08,1.07-4.16,2.15-6.29,3.11Z"/><path class="cls-19" d="M599.55,729.58c5.81,10.28,11.66,29.17,1.81,34.16-4.86,2.44-10.25-.24-14.9-5.07a62.34,62.34,0,0,1-11-17.25C583.69,738,591.47,733.45,599.55,729.58Z"/><path class="cls-20" d="M564,800.77a17.54,17.54,0,0,1-6.33,3.24c-9.3,2.56-18.47-2.24-25.83-13.52-5.37-8.28-10-20.18-12.36-31.85L519,756.3l7.75-1.31,26.1-7.26L565,743l.83,2.18c4.21,11.14,6.62,23.64,6.47,33.44-.11,6.56-1.22,11.94-3.29,16A19.52,19.52,0,0,1,564,800.77ZM524.52,760C526.9,770.4,531,780.7,535.73,788c3.57,5.47,11,14.26,20.72,11.59a13.5,13.5,0,0,0,8.46-7.08c1.71-3.35,2.67-8.19,2.77-14,.13-8.61-1.86-19.49-5.38-29.53l-8,3.12-26.55,7.38Z"/><path class="cls-21" d="M555.82,749a61.44,61.44,0,0,1,3.42,20.14c-.21,6.64-2.37,12.31-7.61,13.77-10.64,3-19-14.94-21.63-26.46C538.58,753.93,547.33,751.9,555.82,749Z"/><path class="cls-22" d="M510.42,811.68a15,15,0,0,1-8.93,3.47c-9.44.69-17.63-5.78-23-18.23-3.84-8.83-6.33-21.21-6.66-33.11l-.06-2.21,24.05-1.7a56.65,56.65,0,0,0,9.1-1.16l14.51-2.53.42,2.24c2.19,11.7,2.38,24.38.51,33.93a37.93,37.93,0,0,1-6,15.07A21.76,21.76,0,0,1,510.42,811.68Zm-33.86-45.79c.54,10.64,2.81,21.41,6.2,29.2,2.62,6.09,8.49,16.18,18.48,15.45,3.57-.14,6.71-2.09,9.4-5.8a33.37,33.37,0,0,0,5.23-13.25c1.65-8.41,1.59-19.45-.13-30l-10,1.74a61.22,61.22,0,0,1-9.71,1.22Z"/><path class="cls-23" d="M509.31,760.32a61.71,61.71,0,0,1-.15,20.41c-1.35,6.59-4.39,12.42-9.84,12.62-11,.78-16.16-18.41-16.75-30.21C491.52,762.42,500.54,762.29,509.31,760.32Z"/><path class="cls-24" d="M457,812a18.36,18.36,0,0,1-12.37,4.25c-4.84,0-9.39-2.48-13.1-7.18-2.95-3.74-5.17-8.73-6.62-14.82-2.25-9.46-2.56-22.14-.84-33.92l.33-2.25L439,760.06a57.93,57.93,0,0,0,9.06.8l24.21.75,0,2.21c.14,11.9-1.86,24.37-5.35,33.36C464.39,803.78,461,808.8,457,812Zm-28.65-48.74c-1.3,10.57-.92,21.6,1.06,29.93a33.48,33.48,0,0,0,5.75,13c2.84,3.6,6.05,5.42,9.55,5.42,10.09.34,15.55-10,17.92-16.16,3.08-7.93,4.93-18.78,5-29.43L448,765.47a62.28,62.28,0,0,1-9.67-.84Z"/><path class="cls-25" d="M461.53,763.55c-.12,11.81-4.51,31.19-15.54,30.85-5.45,0-8.72-5.68-10.33-12.22a61.49,61.49,0,0,1-1-20.39C443.55,763.42,452.57,763.19,461.53,763.55Z"/><path class="cls-26" d="M404.8,803.11c-5.13,4.13-10.83,5.63-16.69,4.27a18.21,18.21,0,0,1-11.68-8.92c-2.25-4-3.57-9.36-3.94-15.89-.54-9.79,1.38-22.37,5.15-33.67l.74-2.22L390.92,751l26.37,6.19,7.56,1-.38,2.36c-1.92,11.76-6.06,23.84-11.09,32.31A37.9,37.9,0,0,1,404.8,803.11Zm-23.48-50.53c-3.12,10.17-4.68,21.13-4.21,29.73.33,5.75,1.48,10.54,3.34,13.87a13.5,13.5,0,0,0,8.72,6.71c9.8,2.28,16.89-6.8,20.25-12.41,4.41-7.44,8.11-17.89,10.08-28.34l-3-.39-26.83-6.3Z"/><path class="cls-27" d="M413.89,758.78c-2.16,11.61-9.81,29.83-20.56,27.3-5.3-1.25-7.68-6.83-8.15-13.45a61.6,61.6,0,0,1,2.62-20.26C396.38,754.9,405.21,756.58,413.89,758.78Z"/><path class="cls-28" d="M355.34,784.81a31.9,31.9,0,0,1-6.61,4.16A18.2,18.2,0,0,1,334,788.9c-8.73-4-12.67-13.57-11.09-27,1.21-9.78,5.32-21.87,11-32.35L335,727.5l6.79,4,14.72,6.69c1.22.54,2.45,1.12,3.68,1.69,2.05,1,4.09,1.92,6.19,2.76l12.43,4.23L378,749c-3.94,11.24-10.12,22.36-16.53,29.76A47.05,47.05,0,0,1,355.34,784.81ZM336.83,733.9c-4.84,9.47-8.31,20-9.37,28.6-.76,6.49-.69,18,8.43,22.2a13.47,13.47,0,0,0,11,0c3.66-1.67,7.43-4.71,11.12-9,5.64-6.5,11.11-16.12,14.86-26.08l-8.11-2.76c-2.29-.92-4.41-1.91-6.53-2.9-1.2-.56-2.41-1.13-3.62-1.67l-14.94-6.8Z"/><path class="cls-29" d="M367.9,745.54a62.17,62.17,0,0,1-10.35,17.67c-4.45,5-9.73,7.91-14.68,5.66-10-4.6-4.94-23.7.45-34.21C351.55,738.21,359.5,742.43,367.9,745.54Z"/><path class="cls-30" d="M312.79,756.11a38,38,0,0,1-14.21,7.61c-5.65,1.47-10.76.64-14.78-2.4-7.72-5.52-9.86-15.71-6-28.66,3.94-13.31,12.64-25.16,16.2-29.64l1.37-1.72L315,715.35a69.57,69.57,0,0,0,9,5.74l11.47,6.65-1.12,2c-5.84,10.38-13.85,20.22-21.42,26.33C312.84,756.06,312.81,756.09,312.79,756.11Zm-16.5-48.49c-6.43,8.49-11.62,18.21-14,26.35-1.9,6.33-3.87,17.8,4.28,23.62,2.94,2.23,6.59,2.77,10.9,1.65a33.42,33.42,0,0,0,12.46-6.73l.08-.06c6.66-5.38,13.71-13.88,19.15-23l-7.47-4.33a72.08,72.08,0,0,1-9.47-6.06Z"/><path class="cls-31" d="M325,724.35a61.59,61.59,0,0,1-13.23,15.54c-5.31,4.24-11.29,6.61-15.62,3.31-9-6.43-.6-24.43,6.54-33.84C310.05,714.46,317,720.22,325,724.35Z"/><path class="cls-32" d="M279.35,718.14a73.34,73.34,0,0,1-10.48,7.14c-11.87,6.59-22.35,6.75-29.51.45-6.72-7.05-7-17.53-.86-29.65,4.32-8.65,12.22-18.54,21.11-26.44l1.68-1.49,16.56,17.54,18,15.7-1.42,1.73A104,104,0,0,1,279.35,718.14ZM261,674.6c-7.8,7.25-14.59,15.93-18.4,23.55-3,6-7,17-.07,24.25,7.38,6.49,18.26,2.06,24.07-1.17,7.48-4.11,15.88-11.25,22.82-19.32L274.66,689Z"/><path class="cls-33" d="M286.34,696.12c-7.69,9-23.55,21-31.86,13.75-7.59-8,3.82-24.34,12.47-32.38l9.23,9.8Z"/><path class="cls-34" d="M257.24,672.17c-5.43,4.37-15.37,11.49-26.47,15.26-12.78,4.4-23.05,2.67-28.9-4.88-3.16-3.83-4.19-8.91-3-14.63A37.82,37.82,0,0,1,206,653.35c5.81-7.81,15.32-16.2,25.46-22.44l1.94-1.2,7.08,11.16a67.25,67.25,0,0,0,6.05,8.71l14.87,19.07-1.67,1.44C259.08,670.66,258.24,671.37,257.24,672.17Zm-33.67-30a79.7,79.7,0,0,0-13.84,14c-3.34,4.49-5.46,8.78-6.29,12.78-.95,4.37-.27,8,2,10.79,6.18,8,17.57,5.55,23.81,3.4,8-2.73,17.63-8.39,25.78-15.07L243,652.5a70.25,70.25,0,0,1-6.39-9.19l-4.6-7.25A100.11,100.11,0,0,0,223.57,642.14Z"/><path class="cls-35" d="M253.07,661.68c-9.12,7.51-26.77,16.59-33.55,7.88-3.47-4.2-1.34-10.27,2.69-15.74a61.55,61.55,0,0,1,15-13.84C241.66,647.8,247.68,654.52,253.07,661.68Z"/><path class="cls-36" d="M233.66,630.09l-2,1.22c-10.23,6.09-22.15,10.67-31.88,12.27-13.33,2.1-23-1.45-27.38-10a18.11,18.11,0,0,1-.7-14.66,38.72,38.72,0,0,1,9.72-13.27c7.1-6.69,18-13.31,29.07-17.69l2.17-.86,4.77,12.37c.87,1.92,1.9,3.91,2.93,5.9.63,1.22,1.26,2.45,1.87,3.69l7.38,14.63Zm-45.71-24q-1.83,1.47-3.41,3A34.43,34.43,0,0,0,176,620.57a13.41,13.41,0,0,0,.51,10.92c4.53,8.93,16.06,8.56,22.52,7.54,8.54-1.4,18.93-5.28,28.19-10.49L225.55,626l-7.5-14.84c-.6-1.23-1.23-2.43-1.84-3.63-1.07-2.06-2.13-4.13-3.08-6.24L210,593.14A95.09,95.09,0,0,0,188,606.05Z"/><path class="cls-37" d="M226.18,622.07C215.9,627.88,197,633.73,192,623.88c-2.44-4.86.24-10.25,5.07-14.9a62.34,62.34,0,0,1,17.25-11C217.77,606.21,222.31,614,226.18,622.07Z"/><path class="cls-38" d="M212.78,587.51l-2.18.83c-11.14,4.21-23.64,6.63-33.43,6.48-6.55-.11-11.94-1.22-16-3.28a18.24,18.24,0,0,1-9.41-11.32c-2.56-9.3,2.27-18.48,13.52-25.83,8.29-5.36,20.19-10,31.85-12.36l2.34-.48,1.31,7.75L208,575.4ZM164.4,560.69c-5,4-10.37,10.42-8.2,18.27a13.55,13.55,0,0,0,7.08,8.46c3.35,1.71,8.2,2.67,14,2.77,8.61.13,19.49-1.86,29.53-5.38l-3.12-8-7.38-26.55-.55-3.25c-10.36,2.38-20.66,6.5-27.93,11.21C166.75,558.93,165.59,559.74,164.4,560.69Z"/><path class="cls-39" d="M206.72,578.34a61.43,61.43,0,0,1-20.13,3.42c-6.64-.21-12.31-2.37-13.77-7.61-3-10.64,14.94-19,26.46-21.63C201.83,561.1,203.86,569.86,206.72,578.34Z"/><path class="cls-40" d="M199.54,542l-2.24.42c-11.7,2.19-24.39,2.38-33.93.51a37.93,37.93,0,0,1-15.07-6c-4.84-3.52-7.5-8-7.69-12.88-.7-9.44,5.77-17.62,18.22-23,8.84-3.84,21.22-6.33,33.11-6.66l2.21-.06,1.7,24.05a58.55,58.55,0,0,0,1.16,9.16ZM152,510.35c-4,3.19-7.19,7.6-6.76,13.4.14,3.57,2.09,6.71,5.79,9.41a33.55,33.55,0,0,0,13.24,5.23c8.4,1.65,19.44,1.59,29.95-.12l-1.73-9.91a63.17,63.17,0,0,1-1.24-9.77l-1.38-19.5c-10.64.54-21.41,2.81-29.2,6.2A37.49,37.49,0,0,0,152,510.35Z"/><path class="cls-41" d="M195.44,531.83a61.71,61.71,0,0,1-20.41-.15c-6.59-1.35-12.42-4.39-12.62-9.84-.78-11,18.41-16.17,30.21-16.75C193.34,514,193.47,523.06,195.44,531.83Z"/><path class="cls-42" d="M194.17,494.77l-2.21,0c-11.9.14-24.37-1.86-33.36-5.35-12.64-4.85-19.43-12.77-19.11-22.31,0-4.77,2.4-9.26,7-12.94l.2-.16c3.73-2.94,8.72-5.17,14.82-6.62,9.46-2.25,22.15-2.57,33.93-.84l2.25.33-2,14.63a56,56,0,0,0-.79,9Zm-44.83-37c-3.48,2.8-5.25,6-5.24,9.41-.34,10.09,10,15.55,16.15,17.92,7.93,3.08,18.78,4.93,29.44,5l.6-19.65a61.51,61.51,0,0,1,.84-9.61l1.35-10.06c-10.57-1.3-21.6-.92-29.93,1.06-5.44,1.3-9.83,3.23-13,5.75Z"/><path class="cls-43" d="M192.2,484.05c-11.81-.12-31.19-4.51-30.85-15.54,0-5.45,5.69-8.72,12.22-10.33a61.49,61.49,0,0,1,20.39-1C192.34,466.07,192.57,475.09,192.2,484.05Z"/><path class="cls-44" d="M197.59,447.37l-2.36-.38c-11.76-1.92-23.84-6.06-32.31-11.09C151.36,429,146.19,420,148.38,410.63A18.21,18.21,0,0,1,157.3,399c4-2.25,9.36-3.57,15.9-3.94,9.78-.55,22.37,1.38,33.67,5.14l2.22.74-4.34,12.54-6.19,26.37Zm-40.06-43a13.07,13.07,0,0,0-4.65,7.32c-2.28,9.8,6.8,16.89,12.41,20.24,7.44,4.41,17.89,8.11,28.34,10.08l.39-3,6.3-26.83,2.87-8.32c-10.18-3.12-21.13-4.68-29.73-4.21-5.75.33-10.55,1.48-13.87,3.34A14.6,14.6,0,0,0,157.53,404.38Z"/><path class="cls-45" d="M197,436.41c-11.61-2.16-29.83-9.81-27.3-20.56,1.25-5.3,6.83-7.68,13.45-8.15a61.5,61.5,0,0,1,20.25,2.62C200.86,418.9,199.18,427.73,197,436.41Z"/><path class="cls-46" d="M208.94,401.34l-2.2-.77C195.5,396.63,184.37,390.45,177,384a38.84,38.84,0,0,1-10.19-12.78,18.2,18.2,0,0,1,.07-14.77c4-8.73,13.57-12.67,26.95-11.09,9.8,1.21,21.89,5.32,32.35,11l2.09,1.13-3.94,6.78L217.62,379c-.54,1.22-1.12,2.45-1.69,3.68-1,2-1.91,4.1-2.76,6.19ZM174.8,353.58a13.09,13.09,0,0,0-3.74,4.83,13.43,13.43,0,0,0,0,11,34.33,34.33,0,0,0,9,11.12c6.5,5.64,16.12,11.1,26.07,14.86l2.76-8.12c.92-2.29,1.91-4.41,2.91-6.54.56-1.2,1.12-2.41,1.66-3.62l6.8-14.94,1.65-2.85c-9.46-4.84-20-8.3-28.6-9.36C188.21,349.39,180.12,349.3,174.8,353.58Z"/><path class="cls-47" d="M210.22,390.42a62.17,62.17,0,0,1-17.67-10.35c-5-4.45-7.91-9.73-5.66-14.68,4.6-10,23.7-4.95,34.21.45C217.55,374.07,213.32,382,210.22,390.42Z"/><path class="cls-48" d="M228,357.92l-2-1.12C215.68,351,205.83,343,199.72,335.39a37.93,37.93,0,0,1-7.68-14.3c-1.47-5.65-.64-10.77,2.4-14.78,5.52-7.74,15.71-9.86,28.66-6,13.31,3.94,25.16,12.64,29.64,16.2l1.72,1.37-14.05,19.55a67.25,67.25,0,0,0-5.73,9Zm-27.37-51.54a13.37,13.37,0,0,0-2.51,2.67c-2.23,2.94-2.77,6.59-1.65,10.9a33.52,33.52,0,0,0,6.8,12.54c5.38,6.67,13.88,13.72,23,19.15l4.33-7.47a70.59,70.59,0,0,1,6.06-9.47l11.41-15.89c-8.49-6.44-18.21-11.63-26.35-14C216.27,303.12,206.85,301.41,200.67,306.38Z"/><path class="cls-49" d="M231.41,347.51a61.59,61.59,0,0,1-15.54-13.23c-4.24-5.31-6.61-11.29-3.31-15.62,6.43-9,24.43-.6,33.84,6.54C241.3,332.57,235.54,339.52,231.41,347.51Z"/><path class="cls-50" d="M254.36,318.4,252.63,317c-9.2-7.54-17.48-17.11-22.15-25.59-6.59-11.86-6.75-22.34-.45-29.5,7.13-6.77,17.53-7,29.65-.86,8.64,4.32,18.53,12.21,26.44,21.11l1.49,1.68-17.55,16.56Zm-20.13-54.09c-.3.24-.6.5-.88.77-6.49,7.39-2.06,18.26,1.17,24.07,4.11,7.48,11.25,15.88,19.32,22.82l12.9-14.79,14.42-13.63c-7.26-7.8-15.94-14.59-23.56-18.4C251.89,262.27,241.48,258.47,234.23,264.31Z"/><path class="cls-51" d="M259.64,308.85c-9-7.69-21-23.55-13.75-31.86,8-7.59,24.34,3.82,32.38,12.47l-9.8,9.23Z"/><path class="cls-52" d="M326.05,255.94,314.89,263a67.32,67.32,0,0,0-8.71,6.05l-19.06,14.87-1.44-1.67c-3.73-4.34-12.89-15.84-17.36-29-4.35-12.63-2.71-22.8,4.62-28.69l.4-.32c3.82-3.07,8.85-4.07,14.5-2.84,4.64,1,9.54,3.36,14.58,7.1,7.81,5.8,16.2,15.32,22.44,25.46Zm-21.89,8.8a74.88,74.88,0,0,1,8.29-5.64l7.25-4.6c-5.79-8.93-13.18-17.14-20.05-22.25-4.49-3.34-8.79-5.46-12.78-6.29-4.37-1-8-.17-10.79,2-8.15,6.2-5.55,17.57-3.4,23.81,2.73,8,8.31,17.54,15.08,25.78l15.5-12.09Z"/><path class="cls-53" d="M294.07,275.59c-7.51-9.12-16.59-26.77-7.88-33.55,4.2-3.48,10.27-1.34,15.74,2.69a61.55,61.55,0,0,1,13.84,15C308,264.17,301.24,270.2,294.07,275.59Z"/><path class="cls-54" d="M368.67,235.13l-12.37,4.78c-1.95.88-4,1.92-6,3-1.2.62-2.4,1.24-3.61,1.84l-14.63,7.38-6.42,4.09-1.22-2c-6.09-10.24-10.67-22.15-12.27-31.88-2.11-13.32,1.47-23,10-27.38a18.11,18.11,0,0,1,14.66-.69,38.77,38.77,0,0,1,13.27,9.71c6.69,7.12,13.31,18,17.7,29.07Zm-41.45,14.58,2.59-1.64,14.84-7.5c1.21-.59,2.38-1.2,3.56-1.81,2.09-1.08,4.18-2.16,6.32-3.12l8.11-3.13c-4.15-9.8-10-19.19-15.88-25.46a34.44,34.44,0,0,0-11.56-8.56,13.33,13.33,0,0,0-10.92.51c-8.95,4.54-8.56,16.06-7.53,22.53C318.13,230.05,322,240.44,327.22,249.71Z"/><path class="cls-55" d="M333.69,248.7c-5.81-10.28-11.66-29.17-1.81-34.16,4.86-2.44,10.25.24,14.9,5.07a62.34,62.34,0,0,1,11,17.25C349.54,240.28,341.76,244.82,333.69,248.7Z"/><path class="cls-56" d="M414.21,222l-7.75,1.31-26.1,7.26-12.13,4.75-.83-2.18c-4.21-11.15-6.63-23.65-6.48-33.43.11-6.56,1.22-11.94,3.29-16a18.22,18.22,0,0,1,11.32-9.41c9.3-2.56,18.47,2.24,25.83,13.52,5.37,8.28,10,20.18,12.36,31.85Zm-43.27,7.31,8-3.12,26.55-7.38,3.24-.56c-2.38-10.37-6.5-20.66-11.21-27.93-3.57-5.47-11-14.26-20.72-11.59a13.52,13.52,0,0,0-8.46,7.08c-1.71,3.35-2.67,8.19-2.77,14C365.42,208.35,367.42,219.24,370.94,229.28Z"/><path class="cls-57" d="M377.42,229.23A61.38,61.38,0,0,1,374,209.1c.21-6.64,2.37-12.31,7.61-13.77,10.64-3,19,14.94,21.63,26.46C394.65,224.34,385.9,226.37,377.42,229.23Z"/><path class="cls-58" d="M461.44,216.66l-24.05,1.7a58.17,58.17,0,0,0-9.13,1.16l-14.49,2.53-.42-2.24c-2.2-11.7-2.39-24.39-.52-33.94a37.93,37.93,0,0,1,6-15.07c3.51-4.85,8-7.5,12.88-7.69,9.44-.69,17.63,5.77,23,18.22,3.84,8.85,6.34,21.23,6.66,33.12Zm-43.95.06,9.94-1.74a62.78,62.78,0,0,1,9.74-1.23l19.5-1.38c-.53-10.63-2.81-21.4-6.2-29.2C447.86,177.08,442,167,432,167.73q-5.34.21-9.4,5.8c-2.4,3.3-4.16,7.76-5.23,13.25C415.72,195.17,415.78,206.21,417.49,216.72Z"/><path class="cls-59" d="M423.92,218a61.71,61.71,0,0,1,.15-20.41c1.35-6.59,4.39-12.42,9.84-12.62,11-.78,16.17,18.41,16.75,30.21C441.71,215.85,432.69,216,423.92,218Z"/><path class="cls-60" d="M508.82,220.16l-14.58-1.95a59,59,0,0,0-9.05-.8L461,216.66l0-2.21c-.15-11.9,1.85-24.37,5.35-33.37,4.84-12.64,12.76-19.42,22.31-19.11,4.84,0,9.39,2.48,13.09,7.17A37.81,37.81,0,0,1,508.32,184c2.25,9.47,2.56,22.15.83,33.92Zm-43.25-8,19.65.61a61,61,0,0,1,9.66.85l10,1.34c1.3-10.56.92-21.59-1.06-29.93a33.48,33.48,0,0,0-5.75-13c-2.84-3.6-6.05-5.42-9.54-5.42-10.1-.34-15.56,10-17.92,16.15C467.53,190.69,465.69,201.55,465.57,212.19Z"/><path class="cls-61" d="M471.69,214.71c.12-11.81,4.51-31.19,15.54-30.85,5.45,0,8.72,5.69,10.33,12.22a61.49,61.49,0,0,1,1,20.39C489.68,214.85,480.66,215.07,471.69,214.71Z"/><path class="cls-62" d="M554.84,231.59l-12.54-4.34-26.37-6.19-7.56-1,.38-2.36c1.92-11.75,6.06-23.83,11.09-32.31,6.92-11.57,15.88-16.73,25.27-14.54a18.21,18.21,0,0,1,11.68,8.92c2.24,4,3.56,9.35,3.94,15.89.54,9.8-1.39,22.38-5.15,33.67Zm-41.11-15.45,3,.39,26.83,6.3,8.32,2.87c3.12-10.16,4.68-21.12,4.21-29.73-.33-5.75-1.48-10.54-3.34-13.86a13.5,13.5,0,0,0-8.72-6.71c-9.8-2.28-16.88,6.79-20.24,12.41C519.4,195.24,515.7,205.69,513.73,216.14Z"/><path class="cls-63" d="M519.34,219.48c2.16-11.61,9.82-29.83,20.56-27.3,5.3,1.25,7.68,6.83,8.15,13.45a61.73,61.73,0,0,1-2.62,20.25C536.85,223.37,528,221.69,519.34,219.48Z"/><path class="cls-64" d="M598.22,250.77l-6.78-3.94-14.72-6.7c-1.22-.54-2.44-1.11-3.67-1.68-2-1-4.11-1.92-6.2-2.77l-12.43-4.23.77-2.2c3.94-11.24,10.12-22.37,16.53-29.76a38.7,38.7,0,0,1,12.78-10.18,18.2,18.2,0,0,1,14.77.07c8.73,4,12.67,13.57,11.1,27-1.21,9.8-5.32,21.89-11,32.35Zm-37.88-22.18,8.11,2.76c2.29.92,4.42,1.92,6.55,2.91,1.2.56,2.4,1.12,3.61,1.66l14.94,6.81,2.85,1.65c4.84-9.47,8.3-20,9.37-28.61.76-6.49.69-18-8.43-22.2a13.47,13.47,0,0,0-11,0,34.12,34.12,0,0,0-11.12,9C569.57,209,564.1,218.63,560.34,228.59Z"/><path class="cls-65" d="M565.33,232.73a61.93,61.93,0,0,1,10.35-17.67c4.45-5,9.73-7.91,14.68-5.66,10,4.6,4.94,23.7-.45,34.21C581.68,240.06,573.73,235.84,565.33,232.73Z"/><path class="cls-66" d="M637.83,277l-19.55-14.05a68,68,0,0,0-9-5.73l-11.48-6.65,1.12-2c5.84-10.38,13.84-20.22,21.42-26.33l.11-.09a37.92,37.92,0,0,1,14.18-7.59c5.65-1.47,10.77-.64,14.78,2.41,7.72,5.51,9.86,15.7,6,28.66-3.95,13.31-12.64,25.16-16.2,29.64Zm-33.72-28.12,7.47,4.33a69.7,69.7,0,0,1,9.47,6.06l15.89,11.41c6.44-8.49,11.63-18.21,14-26.35,1.9-6.33,3.87-17.8-4.28-23.62-2.94-2.23-6.59-2.77-10.9-1.65a32.77,32.77,0,0,0-12.54,6.8C616.59,231.2,609.54,239.7,604.11,248.86Z"/><path class="cls-67" d="M608.24,253.92a61.59,61.59,0,0,1,13.23-15.54c5.31-4.24,11.29-6.61,15.62-3.31,9,6.43.6,24.43-6.54,33.84C623.18,263.81,616.23,258.06,608.24,253.92Z"/><path class="cls-68" d="M671.94,310.12l-16.57-17.54-18-15.7,1.42-1.73c7.55-9.21,17.11-17.49,25.59-22.15,11.86-6.59,22.34-6.75,29.5-.45,6.73,7.05,7,17.53.86,29.65-4.32,8.65-12.21,18.53-21.11,26.44Zm-28.16-33.77,14.79,12.89,13.64,14.42c7.8-7.26,14.59-15.93,18.4-23.56,3-5.94,7-17,.07-24.25-7.39-6.49-18.26-2.06-24.07,1.17C659.13,261.13,650.72,268.28,643.78,276.35Z"/><path class="cls-69" d="M646.89,282.16c7.69-9,23.55-21,31.86-13.75,7.59,8-3.82,24.34-12.47,32.38l-9.23-9.8Z"/><path class="cls-70" d="M712.52,339.75a107.9,107.9,0,0,1-10.77,7.62l-1.94,1.2-7.08-11.16a68.33,68.33,0,0,0-6.05-8.71l-14.87-19.06,1.67-1.44c4.33-3.74,15.83-12.88,29-17.36,12.78-4.4,23-2.67,28.9,4.88,3.16,3.84,4.19,8.92,3,14.63-1,4.64-3.36,9.54-7.11,14.57A84.68,84.68,0,0,1,712.52,339.75Zm-11.27,2.47c8.92-5.79,17.14-13.18,22.25-20.05,3.34-4.49,5.46-8.78,6.29-12.78,1-4.37.27-8-2-10.79-6.18-8-17.56-5.54-23.8-3.39-8.05,2.74-17.58,8.3-25.78,15.07l12.09,15.5a70.69,70.69,0,0,1,6.39,9.19Z"/><path class="cls-71" d="M680.16,316.59c9.12-7.51,26.77-16.59,33.55-7.88,3.47,4.2,1.34,10.27-2.69,15.74a61.55,61.55,0,0,1-15,13.84C691.57,330.47,685.55,323.75,680.16,316.59Z"/><path class="cls-72" d="M748.22,375.78a102.15,102.15,0,0,1-25.44,14.55l-2.16.86-4.78-12.37c-.88-1.94-1.92-3.95-3-6-.62-1.2-1.24-2.41-1.84-3.62l-7.38-14.63-4.1-6.42,2.05-1.22c10.24-6.09,22.16-10.67,31.88-12.27,13.32-2.11,23,1.45,27.38,10a18.13,18.13,0,0,1,.7,14.67,38.91,38.91,0,0,1-9.71,13.27C750.73,373.69,749.51,374.74,748.22,375.78Zm-25,9.37c9.8-4.15,19.19-10,25.47-15.88a34.35,34.35,0,0,0,8.56-11.56,13.41,13.41,0,0,0-.51-10.92c-4.53-9-16.06-8.56-22.52-7.54-8.53,1.4-18.92,5.28-28.19,10.49l1.64,2.58,7.5,14.84c.6,1.21,1.21,2.39,1.81,3.57,1.08,2.08,2.15,4.17,3.11,6.31Z"/><path class="cls-73" d="M707.05,356.2c10.28-5.81,29.17-11.66,34.16-1.81,2.44,4.86-.24,10.25-5.07,14.9a62.34,62.34,0,0,1-17.25,11C715.46,372.06,710.92,364.28,707.05,356.2Z"/><path class="cls-74" d="M771.84,421.09c-1.19,1-2.49,1.89-3.88,2.8-8.28,5.37-20.18,10-31.85,12.36l-2.34.48L732.46,429l-7.26-26.1-4.75-12.13,2.18-.83c11.14-4.21,23.64-6.62,33.44-6.47,6.55.11,11.94,1.22,16,3.29a18.17,18.17,0,0,1,9.4,11.32C783.72,406.22,780.31,414.28,771.84,421.09Zm-34.33,10.14c10.36-2.38,20.66-6.49,27.93-11.21,5.48-3.56,14.26-11,11.58-20.72a13.46,13.46,0,0,0-7.08-8.46c-3.36-1.71-8.2-2.67-14-2.77-8.61-.14-19.49,1.86-29.54,5.38l3.12,8L736.94,428Z"/><path class="cls-75" d="M726.51,399.93a61.44,61.44,0,0,1,20.14-3.42c6.64.21,12.31,2.37,13.77,7.61,3,10.64-14.94,19-26.46,21.63C731.4,417.17,729.37,408.42,726.51,399.93Z"/><path class="cls-76" d="M784.19,471.51a42.18,42.18,0,0,1-9.79,5.73c-8.84,3.84-21.22,6.33-33.11,6.66l-2.21.06-1.7-24a57.9,57.9,0,0,0-1.16-9.12L733.7,436.3l2.24-.42c11.7-2.19,24.39-2.38,33.93-.51a37.93,37.93,0,0,1,15.07,6c4.84,3.52,7.5,8,7.69,12.88C793.1,460.78,790.16,466.71,784.19,471.51Zm-40.82,7.68c10.64-.54,21.41-2.81,29.2-6.2,6.09-2.62,16.18-8.48,15.45-18.48-.14-3.57-2.09-6.7-5.8-9.4-3.3-2.4-7.76-4.16-13.25-5.23-8.4-1.65-19.44-1.59-30,.12l1.73,9.95a61.47,61.47,0,0,1,1.23,9.73Z"/><path class="cls-77" d="M737.79,446.44a61.71,61.71,0,0,1,20.41.15c6.59,1.35,12.42,4.39,12.62,9.84.78,11-18.41,16.17-30.21,16.75C739.89,464.23,739.76,455.21,737.79,446.44Z"/><path class="cls-78" d="M652.19,904.82A126.2,126.2,0,0,1,613.63,926c-63.33,21.59-132.16-9.89-157.9-70.54-28.22,59.54-98.28,88.15-160.67,64a127.22,127.22,0,0,1-75.62-155.54,127,127,0,0,1-122.16-222A127.06,127.06,0,0,1,146.4,293.27,127,127,0,0,1,343.84,134.42C350,68.82,406.06,18,472.94,19.35A127.08,127.08,0,0,1,597.2,139.64c46.95-46.32,122.51-49.22,172.87-5.17h0a127.23,127.23,0,0,1,17.86,172c65.68-5.33,125.49,41,135.74,107.16S891,542.09,826.78,556.91C880.5,595,896.52,669,861.89,726.25s-107.6,77.37-166.3,47.48A127.35,127.35,0,0,1,652.19,904.82ZM456.72,808.66l6.15,24.56c.75,3,1.6,6,2.63,9a113.19,113.19,0,1,0,214.28-73c-1-3-2.19-5.91-3.44-8.77l-10.13-23.21,20.54,14.82c2.53,1.83,5.13,3.6,7.85,5.25A113.19,113.19,0,0,0,811.8,563.63c-2.72-1.64-5.49-3.13-8.28-4.52L781,547.85,806.11,546c3.12-.23,6.25-.54,9.4-1a113.19,113.19,0,0,0-34.72-223.7c-3.13.49-6.2,1.13-9.24,1.86l-24.67,6,18.22-17.68c2.25-2.18,4.44-4.43,6.53-6.82a113.19,113.19,0,1,0-170.38-149c-2.08,2.38-4,4.85-5.89,7.37l-15.14,20.47,2.68-25.32c.33-3.1.56-6.21.62-9.37A113.2,113.2,0,0,0,357.16,144c-.06,3.16,0,6.29.24,9.42L359,178.79l-14.23-21c-1.75-2.59-3.59-5.12-5.58-7.6A113.18,113.18,0,1,0,162.8,292.07c2,2.47,4.07,4.81,6.22,7.06l17.49,18.32-24.38-6.86c-3-.85-6.06-1.62-9.18-2.24A113.19,113.19,0,1,0,109,530.43c3.13.62,6.24,1.06,9.33,1.41l25.13,2.89-23.09,10.32c-2.84,1.27-5.66,2.63-8.44,4.16A113.19,113.19,0,1,0,221.09,747.55c2.78-1.53,5.44-3.18,8-4.9l21.07-14-11,22.78c-1.35,2.81-2.65,5.67-3.79,8.63a113.18,113.18,0,1,0,211.06,81.81c1.15-3,2.13-6,3-9Z"/><path class="cls-79" d="M725,1241.86a3.63,3.63,0,0,1-2.58.78l-15.86-1.47c-53.67-5-184.65-24.71-252.56-100.69a198.21,198.21,0,0,1-17.69,16c-74.19,59.69-191.54,71.75-238.54,74.17l-15.91.82a3.6,3.6,0,0,1-2.74-1.06l-11.2-11.32C130,1180.87,42.45,1081.68,39.14,979.88c-101.26,10.3-211.3-63.35-254.29-95.83l-12.71-9.6a3.56,3.56,0,0,1-1.41-2.57l-1.3-15.87c-3.43-41.7-9.43-182.87,55.38-265.89C-259.52,533-296.53,405.7-308.6,353.13l-3.56-15.52a3.6,3.6,0,0,1,.57-2.88l9.2-13c17.51-24.74,54.12-72,102.53-111,37.39-30.09,74.66-49.23,110.82-57-28-98,25.54-219.37,50.11-267.45l7.25-14.18a3.65,3.65,0,0,1,2.28-1.84l15.41-4c52.21-13.69,182.19-40,271.9,8.26,15.22-33.66,41.81-65.91,79.09-95.9,42.1-33.88,88.47-57.78,120.1-71.92,21.25-16.83,38.84-7.25,70.64,10.05,51.37,28,141.58,86.51,174.48,167.18,94.81-45.79,231.86-9.63,272,2.69l15.23,4.67a3.57,3.57,0,0,1,2.2,1.93l6.66,14.47c22.5,48.93,70.86,172.13,39.15,268.87,98.68,25,176.88,131.79,206.17,177l8.66,13.37a3.61,3.61,0,0,1,.45,2.9l-4.2,15.36c-12.4,45.33-49.28,157.23-123.82,217.22a199.16,199.16,0,0,1-19.19,13.68c59.71,82.55,51,214.81,44.35,268.35l-2,15.81a3.44,3.44,0,0,1-1.52,2.51l-13.1,9.07c-44.28,30.66-157.22,99.68-258,85.24-7.46,101.52-99.06,197.08-138.49,233.77l-11.67,10.85A1.92,1.92,0,0,0,725,1241.86Zm-273.14-109.5a3.6,3.6,0,0,1,5,.46c67.24,78.61,208.64,97.33,250.38,101.2l14.26,1.32,10.49-9.76c30.66-28.54,131.13-129.66,136.46-232.85a3.69,3.69,0,0,1,4.17-3.35c101.94,16.87,222.22-59.61,256.66-83.46h0l11.78-8.15,1.76-14.22c5.15-41.63,17.12-183.87-45.3-266.32a3.58,3.58,0,0,1-.66-2.85,3.54,3.54,0,0,1,1.69-2.4,188.75,188.75,0,0,0,21.73-15.16c72.93-58.68,109.2-168.88,121.41-213.54l3.77-13.81-7.79-12c-22.78-35.16-104.92-151.67-205.6-174.84a3.59,3.59,0,0,1-2.58-4.69c34.31-97.48-20.13-229.2-37.63-267.25l-6-13-13.7-4.2c-40-12.27-177.67-48.63-270.17-1.41a3.6,3.6,0,0,1-2.91.16,3.62,3.62,0,0,1-2.07-2.06C665-193.26,565.58-254.5,524.31-277c-31.17-17-45.4-24.7-62.94-10.58a5.68,5.68,0,0,1-.93.6c-31.25,13.94-77.25,37.6-118.95,71.15C303.8-185.46,277.36-152.91,262.9-119a3.55,3.55,0,0,1-2.15,2,3.59,3.59,0,0,1-2.92-.27c-90-50.92-229.41-20.13-270-9.48L-26-123.15l-6.52,12.76C-51.65-73-111.61,56.68-81.07,155.47a3.63,3.63,0,0,1-.35,2.91,3.62,3.62,0,0,1-2.4,1.68C-120,167-157.56,185.91-195.37,216.33c-47.73,38.4-83.87,85.12-101.17,109.55l-8.28,11.69,3.21,14c9.39,40.88,46.78,178.64,133.62,234.76a3.59,3.59,0,0,1,1.6,2.45,3.61,3.61,0,0,1-.76,2.83c-65.74,80.48-59.68,222.3-56.26,263.85l1.17,14.28,11.43,8.63c33.42,25.25,150.49,106.67,253,94a3.59,3.59,0,0,1,4,3.52c1.11,103.38,97.29,208.49,126.74,238.25L183,1224.26l14.31-.73c46.31-2.38,161.85-14.21,234.41-72.59a188.19,188.19,0,0,0,19.68-18.22A3.15,3.15,0,0,1,451.81,1132.36Z"/><path class="cls-80" d="M1116.79,886.83c-.17.14-.35.27-.53.4C1032,945.54,919.93,991.11,842.88,956.78c17.07,82.61-51.46,182.37-126.46,252.15a9.18,9.18,0,0,1-7.14,2.43c-102-9.45-217.18-46.61-254.15-122.47-40.09,74.28-156.7,106.66-258.94,111.91a9.26,9.26,0,0,1-7-2.73c-72-72.77-136.36-175.24-116-257.13-78.33,31.18-188.5-19-270.29-80.77a9.24,9.24,0,0,1-3.64-6.62c-8.4-102.06,8.1-221.7,76.44-271.52-80.06-26.51-132.2-135.74-155.13-235.6A9.22,9.22,0,0,1-278,339c59.15-83.54,148.89-164.69,233.08-158.85C-89.21,108.45-58.92-8.76-12.28-100a9.27,9.27,0,0,1,5.88-4.73c99.14-26,220.11-30.5,280.69,28.12C286.35-158.53,381.33-227.73,474-268a9.28,9.28,0,0,1,9.49-3.6c.13,0,1,.39,2.52,1.08l0-.07.9.44c.26.13.52.26.77.41,28,12.92,185.05,92.14,196.22,201.53,62.81-56,183.65-46.56,281.55-16.52a9.24,9.24,0,0,1,5.69,5c42.8,93.06,68.22,211.38,21,281.3,84.29-2.49,170.64,82.33,226.35,168.33a9.26,9.26,0,0,1,1.16,7.46c-27,98.75-83.6,205.71-164.73,229,66.17,52.3,77.81,172.79,65.23,274.47A9.27,9.27,0,0,1,1116.79,886.83ZM449.86,1056.4a9.23,9.23,0,0,1,14.74,4.94c25.84,102.49,197.89,126.68,242.25,131.22,76.42-72.11,145-175.22,111.66-251.84a9.24,9.24,0,0,1,13.89-11.18c85.6,62,233-30.14,269.92-55.17C1114.5,770,1100.78,646.9,1026,609.67a9.24,9.24,0,0,1,3.44-17.49c105.46-7.72,159.13-172.88,171.31-215.77-57.76-87.81-147.4-173.3-228.62-153.69a9.24,9.24,0,0,1-8.6-15.61c75.88-73.56,10.78-234.71-7.46-275.41-100.66-30.12-224.29-38-273.94,29.22A9.24,9.24,0,0,1,671.34-36a9.22,9.22,0,0,1-5.85-9.57c11-106.28-153-191.79-182.59-206.23-40.64,17.65-197.65,92.9-191.23,198.54a9.24,9.24,0,0,1-6.25,9.31,9.25,9.25,0,0,1-10.63-3.58C215.69-135,45.59-98.85,2.31-87.94-17.61-48-89.35,110.43-16.5,186.89A9.24,9.24,0,0,1-15.28,198a9.23,9.23,0,0,1-10.43,4.12c-101.73-28.79-208.67,108-234.77,144.18C-236.24,448.59-181.26,559.58-98.22,569a9.24,9.24,0,0,1,8.09,7.76,9.22,9.22,0,0,1-5.35,9.85c-96.45,43.2-90.39,216.85-87.17,261.34,35.88,26.56,179.43,124.69,267.39,66.25a9.24,9.24,0,0,1,13.43,11.72C52.1,1021,168.33,1150.12,199.38,1182.12,304.18,1176,423,1141.12,446.8,1061A9.14,9.14,0,0,1,449.86,1056.4Z"/><path class="cls-81" d="M155.26,348.39a119.18,119.18,0,0,1-136.14,9A119,119,0,0,1,52.3,140.09a118.2,118.2,0,0,1,90,13.74h0A119,119,0,0,1,182.5,317.2,119.68,119.68,0,0,1,155.26,348.39ZM11.94,170A109.81,109.81,0,0,0-13.17,198.8,109.72,109.72,0,0,0,106.91,362.14a109.72,109.72,0,0,0,30.6-200.41h0A109.9,109.9,0,0,0,11.94,170Z"/><path class="cls-82" d="M95.34,651.14a118.23,118.23,0,0,1-56.23,24.71,118.17,118.17,0,0,1-88.46-21.54A119,119,0,0,1-75.14,488.07,118.16,118.16,0,0,1,2.64,440.75a119.1,119.1,0,0,1,135.79,99.32,118.17,118.17,0,0,1-21.53,88.46A120,120,0,0,1,95.34,651.14ZM-47.79,472.66a110.17,110.17,0,0,0-19.89,20.87A109.72,109.72,0,0,0-43.89,646.86,109,109,0,0,0,37.7,666.72a109,109,0,0,0,71.75-43.65,109,109,0,0,0,19.86-81.59A109.85,109.85,0,0,0,4.06,449.88,109,109,0,0,0-47.79,472.66Z"/><path class="cls-83" d="M244.16,921.35A119,119,0,0,1,80.07,750.3h0c43.17-49.37,118.5-54.39,167.87-11.21a119,119,0,0,1-3.78,182.26ZM87,756.38a109.73,109.73,0,1,0,154.83-10.33A109.85,109.85,0,0,0,87,756.38Z"/><path class="cls-84" d="M531.74,1032.93a119.21,119.21,0,1,1,8-7C537.13,1028.39,534.47,1030.73,531.74,1032.93ZM388.68,854.49q-3.78,3-7.33,6.45a109.32,109.32,0,1,0,7.33-6.45Z"/><path class="cls-85" d="M824,933.24h0a119.11,119.11,0,0,1-167.27-18.1h0A119.13,119.13,0,0,1,674.8,747.89l0,0A119,119,0,0,1,824,933.24ZM663.88,909.35A109.86,109.86,0,0,0,818.16,926c23.09-18.26,37.15-44.53,40.3-73.67a109.71,109.71,0,0,0-177.84-97.31h0a109.88,109.88,0,0,0-16.72,154.28Z"/><path class="cls-86" d="M983.73,669.17a118.73,118.73,0,0,1-97.67,24.12h0a119.12,119.12,0,1,1,97.67-24.12Zm-95.89,15.07a109.74,109.74,0,1,0-86.36-128.93,109.86,109.86,0,0,0,86.36,128.93Z"/><path class="cls-87" d="M936.43,364.35a118.68,118.68,0,0,1-17.27,11.56h0a118.87,118.87,0,1,1,17.27-11.56Zm-21.73,3.47c53-29.12,72.39-96,43.23-149a109.72,109.72,0,1,0-43.23,149Z"/><path class="cls-88" d="M704.29,161.08a119,119,0,0,1-117.7,18.39A118.92,118.92,0,0,1,518.68,25.56,118.93,118.93,0,0,1,672.56-42.38a119.11,119.11,0,0,1,68,153.9h0A118.36,118.36,0,0,1,704.29,161.08Zm-143.65-178A109.91,109.91,0,0,0,529.2,112.84a109,109,0,0,0,60.72,58,109.88,109.88,0,0,0,142-62.67h0a109.88,109.88,0,0,0-62.67-142,109,109,0,0,0-84,1.94A110.69,110.69,0,0,0,560.64-16.88Z"/><path class="cls-89" d="M395.77,154.87a118.84,118.84,0,0,1-36.3,19.91,118.9,118.9,0,0,1-151-74.23A119,119,0,1,1,433.7,23.8h0a119.22,119.22,0,0,1-37.93,131.07ZM252.23-23.31a109.92,109.92,0,0,0-35,120.88,109.46,109.46,0,1,0,35-120.88Z"/><path class="cls-90" d="M53.29,258.59a37.88,37.88,0,1,1,9.44-11.3A37.92,37.92,0,0,1,53.29,258.59ZM11.54,206.84a28.36,28.36,0,0,0-7.14,8.54A28.63,28.63,0,1,0,43.25,204h0A28.66,28.66,0,0,0,11.54,206.84Z"/><path class="cls-91" d="M106.6,282.81a26.37,26.37,0,1,1-3.89-43.66h0a26.4,26.4,0,0,1,3.89,43.66ZM79.34,248.93a17.13,17.13,0,0,0,2.52,28.36,17.12,17.12,0,0,0,16.43-30h0a17.12,17.12,0,0,0-19,1.67Z"/><path class="cls-92" d="M-11.65,600.45A37.61,37.61,0,0,1-27.94,608a37.57,37.57,0,0,1-28.42-5.63,37.62,37.62,0,0,1-16.13-24.08A37.9,37.9,0,0,1-42.8,533.77h0A37.91,37.91,0,0,1,1.75,563.48,37.57,37.57,0,0,1-3.87,591.9,37.2,37.2,0,0,1-11.65,600.45Zm-41.61-51.86a28.65,28.65,0,0,0-10.17,27.94,28.43,28.43,0,0,0,12.19,18.2A28.43,28.43,0,0,0-29.75,599a28.39,28.39,0,0,0,18.2-12.19A28.43,28.43,0,0,0-7.3,565.3,28.67,28.67,0,0,0-41,542.84,28.58,28.58,0,0,0-53.26,548.59Z"/><path class="cls-93" d="M48.84,577.94a26.36,26.36,0,1,1-21.68-46.41h0a26.37,26.37,0,0,1,21.67,46.41ZM21.66,544a17.18,17.18,0,0,0-6.1,16.73A17.12,17.12,0,0,0,49.13,554,17.14,17.14,0,0,0,29,540.59h0A16.88,16.88,0,0,0,21.66,544Z"/><path class="cls-94" d="M158.34,904a37.87,37.87,0,0,1-53.25-53.21h0a37.87,37.87,0,0,1,59.11,47.34A38.72,38.72,0,0,1,158.34,904Zm-46-47.44a28.63,28.63,0,1,0,40.23-4.45,28.59,28.59,0,0,0-40.23,4.45Z"/><path class="cls-95" d="M194.28,841.13a26.37,26.37,0,0,1-32.95,0,26.43,26.43,0,0,1-4.1-37h0a26.35,26.35,0,1,1,37.05,37Zm-29.83-31.28a17.16,17.16,0,0,0,2.66,24.07,17.12,17.12,0,0,0,21.4-26.72,17.16,17.16,0,0,0-24.06,2.65Z"/><path class="cls-96" d="M474.89,949.23a26.35,26.35,0,0,1-42.83-20h0a26.29,26.29,0,1,1,42.83,20ZM447.7,915.3a17.21,17.21,0,0,0-1.67,1.54A16.94,16.94,0,0,0,441.3,929h0a17.07,17.07,0,1,0,6.4-13.75Z"/><path class="cls-97" d="M812.12,912.48A37.87,37.87,0,0,1,760,908h0a37.87,37.87,0,1,1,53.45,3.43C813,911.77,812.56,912.13,812.12,912.48Zm-45.2-10.62a28.63,28.63,0,1,0,2.62-40.41,28.44,28.44,0,0,0-2.62,40.41Z"/><path class="cls-98" d="M759.35,851.64a26.4,26.4,0,0,1-36.3-3.14h0a26.35,26.35,0,1,1,37.18,2.4C759.94,851.15,759.65,851.4,759.35,851.64Zm-27.21-33.89-.59.49A17.09,17.09,0,0,0,730,842.39h0a17.11,17.11,0,1,0,2.15-24.64Z"/><path class="cls-99" d="M990,613.44a37.77,37.77,0,0,1-29.46,8h0a37.94,37.94,0,1,1,29.46-8ZM962,612.27a28.62,28.62,0,1,0-24-32.62,28.69,28.69,0,0,0,24,32.62Z"/><path class="cls-100" d="M914.55,594.05A26.32,26.32,0,0,1,894,599.59h0a26.4,26.4,0,1,1,20.52-5.54Zm-19.11-3.59a17.13,17.13,0,0,0,16.38-27.07,17.15,17.15,0,0,0-23.92-3.65,16.49,16.49,0,0,0-6.78,11.2,17.14,17.14,0,0,0,14.32,19.52Z"/><path class="cls-101" d="M934.13,270.06A37.51,37.51,0,0,1,930,273h0a37.72,37.72,0,1,1,4.12-2.89Zm-8.92-5a28.63,28.63,0,0,0,9.58-39.32,28.62,28.62,0,1,0-48.91,29.73,28.62,28.62,0,0,0,39.33,9.59Z"/><path class="cls-102" d="M867.88,297a25.25,25.25,0,0,1-2.84,2h0a26.34,26.34,0,1,1,2.84-2Zm-7.64-5.9a17.11,17.11,0,1,0-13,2,17.09,17.09,0,0,0,13-2Z"/><path class="cls-103" d="M670.57,43a37.74,37.74,0,0,1-7,4.48,37.86,37.86,0,0,1-50.72-17.17,37.86,37.86,0,0,1,46.08-52.64,37.6,37.6,0,0,1,21.8,19.08,37.58,37.58,0,0,1,1.93,28.91A37.58,37.58,0,0,1,670.57,43ZM628.79-8.73a28.6,28.6,0,0,0-7.68,34.94,28.63,28.63,0,0,0,52.78-3.52,28.61,28.61,0,0,0-45.1-31.42Z"/><path class="cls-104" d="M641.21,99.44a26.57,26.57,0,0,1-4.89,3.12,26.36,26.36,0,1,1,13.27-15.17h0A26,26,0,0,1,641.21,99.44ZM613.89,65.6a17.12,17.12,0,1,0,27,18.83h0A17.11,17.11,0,0,0,617.05,63.6,16.22,16.22,0,0,0,613.89,65.6Z"/><path class="cls-105" d="M322.62,38.5a37.77,37.77,0,0,1-10,5.76,37.86,37.86,0,1,1-27.5-70.54,37.91,37.91,0,0,1,49,21.51h0A37.94,37.94,0,0,1,322.62,38.5ZM281-13.33a28.6,28.6,0,1,0,7.52-4.36A28.81,28.81,0,0,0,281-13.33Z"/><path class="cls-106" d="M340.56,93.82a26.39,26.39,0,1,1,8-30.08h0a26.38,26.38,0,0,1-8,30.08ZM313.23,60a17.12,17.12,0,1,0,26.71,7.11h0a17.07,17.07,0,0,0-22.16-9.72A17.36,17.36,0,0,0,313.23,60Z"/><path class="cls-107" d="M217.46,112.2A102.15,102.15,0,0,1,104.89,22a72.5,72.5,0,0,1,64-79.88,51.84,51.84,0,0,1,57.13,45.8A37.47,37.47,0,0,1,193,29.19a27.31,27.31,0,0,1-20.18-5.86A27.29,27.29,0,0,1,162.65,4.91,20.33,20.33,0,0,1,167-10.15a20.42,20.42,0,0,1,13.76-7.56A15.71,15.71,0,0,1,198.08-3.83a12.19,12.19,0,0,1-2.63,9,12.16,12.16,0,0,1-8.25,4.54l-1-9.19a3.05,3.05,0,0,0,2.06-1.13,3,3,0,0,0,.65-2.24,6.44,6.44,0,0,0-7.1-5.7,11.27,11.27,0,0,0-10,12.42,18.1,18.1,0,0,0,6.71,12.22A18.08,18.08,0,0,0,191.93,20,28.24,28.24,0,0,0,216.87-11.1a42.59,42.59,0,0,0-46.93-37.63A63.26,63.26,0,0,0,114.07,21,92.9,92.9,0,0,0,216.45,103Z"/><path class="cls-108" d="M150.78,163.88,142,160.93A92.77,92.77,0,0,0,83.78,43.36,63.22,63.22,0,0,0,3.75,83a42.58,42.58,0,0,0,26.71,53.91,28.22,28.22,0,0,0,35.72-17.7A18.2,18.2,0,0,0,54.75,96.12a11.31,11.31,0,0,0-14.29,7.08,6.44,6.44,0,0,0,4,8.14,3.07,3.07,0,0,0,3.89-1.93l8.76,3a12.34,12.34,0,0,1-15.6,7.72,15.67,15.67,0,0,1-9.85-19.86,20.57,20.57,0,0,1,26-12.87,27.42,27.42,0,0,1,17.23,34.79,37.47,37.47,0,0,1-47.43,23.5A51.83,51.83,0,0,1-5,80,72.47,72.47,0,0,1,86.72,34.6a102,102,0,0,1,64.06,129.28Z"/><path class="cls-109" d="M23.54,369.65A101.28,101.28,0,0,1-38,392a101.3,101.3,0,0,1-72.79-28.26,71.87,71.87,0,0,1-22.35-50.69,71.92,71.92,0,0,1,20.06-51.65,51.33,51.33,0,0,1,36.26-16,51.41,51.41,0,0,1,36.94,14.34,37.49,37.49,0,0,1,1.18,52.93,27.49,27.49,0,0,1-38.81.88,20.55,20.55,0,0,1-.64-29A15.72,15.72,0,0,1-56,284.08a12.19,12.19,0,0,1,3.8,8.62,12.21,12.21,0,0,1-3.4,8.78l-6.69-6.38a3.06,3.06,0,0,0,.85-2.19,3,3,0,0,0-.95-2.14,6.47,6.47,0,0,0-9.09.19,11.29,11.29,0,0,0,.35,15.94,18.22,18.22,0,0,0,25.75-.58,28.24,28.24,0,0,0-.9-39.87A42.19,42.19,0,0,0-76.6,254.68a42.22,42.22,0,0,0-29.79,13.13,62.71,62.71,0,0,0-17.5,45.06,62.71,62.71,0,0,0,19.5,44.22,92.13,92.13,0,0,0,66.19,25.7,92.12,92.12,0,0,0,65-28.64l6.68,6.39A105.06,105.06,0,0,1,23.54,369.65Z"/><path class="cls-110" d="M15.6,443,7,446.34a92.88,92.88,0,0,0-120.19-52.62A63.24,63.24,0,0,0-149,475.54,42.26,42.26,0,0,0-126.46,499a42.23,42.23,0,0,0,32.55.65,28.23,28.23,0,0,0,16-36.53,18.09,18.09,0,0,0-9.65-10.05,18.11,18.11,0,0,0-13.94-.28,11.3,11.3,0,0,0-6.39,14.6A6.44,6.44,0,0,0-99.57,471a3.09,3.09,0,0,0,1.74-4l8.6-3.36a12.35,12.35,0,0,1-7,15.95,15.71,15.71,0,0,1-20.3-8.88,20.55,20.55,0,0,1,11.63-26.58,27.29,27.29,0,0,1,21,.42,27.24,27.24,0,0,1,14.55,15.15,37.49,37.49,0,0,1-21.23,48.5,51.41,51.41,0,0,1-39.62-.79,51.44,51.44,0,0,1-27.46-28.58,72.48,72.48,0,0,1,41.06-93.78A102.16,102.16,0,0,1,15.6,443Z"/><path class="cls-111" d="M14.21,742a101.23,101.23,0,0,1-70.48,22.24A71.9,71.9,0,0,1-106,739.75a71.93,71.93,0,0,1-17.84-52.46,51.42,51.42,0,0,1,17.5-35.55A51.66,51.66,0,0,1-68.81,639a37.48,37.48,0,0,1,34.93,39.79A27.5,27.5,0,0,1-63,704.39a20.44,20.44,0,0,1-14.09-6.93,20.4,20.4,0,0,1-5.06-14.87,15.54,15.54,0,0,1,5.3-10.76A15.42,15.42,0,0,1-65.53,668,12.33,12.33,0,0,1-54,681l-9.22-.58a3.08,3.08,0,0,0-2.87-3.27,6.42,6.42,0,0,0-4.66,1.59A6.4,6.4,0,0,0-73,683.2a11.17,11.17,0,0,0,2.78,8.17,11.18,11.18,0,0,0,7.74,3.81,18.24,18.24,0,0,0,19.35-17,28.23,28.23,0,0,0-26.3-30,42.26,42.26,0,0,0-30.82,10.48A42.25,42.25,0,0,0-114.6,687.9,62.69,62.69,0,0,0-99,733.66,62.71,62.71,0,0,0-55.67,755a91.93,91.93,0,0,0,67.22-22.86,92.17,92.17,0,0,0,31.37-63.71l9.22.6a101.37,101.37,0,0,1-34.5,70.05C16.52,740.08,15.37,741,14.21,742Z"/><path class="cls-112" d="M39.14,877.47a51.61,51.61,0,0,1-17.9,9.32,51.41,51.41,0,0,1-39.4-4.24A72.36,72.36,0,0,1-47,784.33a101.3,101.3,0,0,1,60.8-49,101.38,101.38,0,0,1,77.63,8.36L87,751.81A92.75,92.75,0,0,0-38.87,788.75a63.12,63.12,0,0,0,25.15,85.68,42.24,42.24,0,0,0,32.37,3.49A42.27,42.27,0,0,0,44,857.5a28.17,28.17,0,0,0-11.23-38.25,18.2,18.2,0,0,0-24.71,7.24,11.29,11.29,0,0,0,4.5,15.3,6.45,6.45,0,0,0,8.73-2.57,3.08,3.08,0,0,0,.25-2.34,3,3,0,0,0-1.47-1.82l4.42-8.12a12.31,12.31,0,0,1,4.92,16.7,15.68,15.68,0,0,1-21.27,6.25A20.55,20.55,0,0,1,0,822.05a27.43,27.43,0,0,1,37.25-10.92,37.43,37.43,0,0,1,14.92,50.79A52.3,52.3,0,0,1,39.14,877.47Z"/><path class="cls-113" d="M246.55,1033.15q-1.8,1.45-3.68,2.83a72.36,72.36,0,0,1-101.17-15.52,51.77,51.77,0,0,1,11.09-72.38,37.5,37.5,0,0,1,52.33,8,27.51,27.51,0,0,1-5.87,38.38,20.54,20.54,0,0,1-28.67-4.39,15.63,15.63,0,0,1,3.36-21.92,12.31,12.31,0,0,1,17.21,2.63l-7.44,5.48a3.09,3.09,0,0,0-2-1.22,3,3,0,0,0-2.28.56,6.56,6.56,0,0,0-1.38,9,11.3,11.3,0,0,0,15.75,2.4,18.14,18.14,0,0,0,3.89-25.46,28.25,28.25,0,0,0-39.42-6,42.53,42.53,0,0,0-9.11,59.46,63.13,63.13,0,0,0,88.26,13.53,92.76,92.76,0,0,0,19.9-129.69l7.45-5.47a102,102,0,0,1-18.21,139.79Z"/><path class="cls-114" d="M370.33,1091.73a51.34,51.34,0,0,1-22.2,10.37,72.47,72.47,0,0,1-85.22-56.72,102.14,102.14,0,0,1,79.93-120.1l1.82,9.05A92.9,92.9,0,0,0,272,1043.55,63.24,63.24,0,0,0,346.32,1093,42.6,42.6,0,0,0,379.66,1043a28.23,28.23,0,0,0-33.19-22.09,18.2,18.2,0,0,0-14.27,21.44,11.28,11.28,0,0,0,13.27,8.83,6.45,6.45,0,0,0,5-7.58,3.08,3.08,0,0,0-3.62-2.41l-1.82-9.06a12.31,12.31,0,0,1,14.49,9.65,15.68,15.68,0,0,1-12.27,18.45,20.53,20.53,0,0,1-24.15-16.06,27.44,27.44,0,0,1,21.51-32.32,37.47,37.47,0,0,1,44.07,29.33A51.88,51.88,0,0,1,370.33,1091.73Z"/><path class="cls-115" d="M621.91,1091a73.7,73.7,0,0,1-7.91,5.55,71.9,71.9,0,0,1-54.76,8.45,51.83,51.83,0,0,1-38-62.57,37.5,37.5,0,0,1,45.25-27.5,27.52,27.52,0,0,1,20.17,33.19,20.56,20.56,0,0,1-24.78,15.07,15.71,15.71,0,0,1-11.52-19,12.34,12.34,0,0,1,14.87-9l-2.18,9a3.09,3.09,0,0,0-3.72,2.26,6.48,6.48,0,0,0,4.74,7.79,11.3,11.3,0,0,0,13.61-8.29,18.26,18.26,0,0,0-13.38-22,28.24,28.24,0,0,0-34.08,20.71A42.59,42.59,0,0,0,561.44,1096a63.14,63.14,0,0,0,76.32-46.37,92.89,92.89,0,0,0-68.13-112.14l2.19-9a102.15,102.15,0,0,1,74.91,123.31A71.84,71.84,0,0,1,621.91,1091Z"/><path class="cls-116" d="M758.71,1046.05a72.51,72.51,0,0,1-90.59.13,102.13,102.13,0,0,1-16-143.38l7.22,5.77A92.89,92.89,0,0,0,673.89,1039a63.22,63.22,0,0,0,88.76-9.89A42.51,42.51,0,0,0,756,969.31a28.16,28.16,0,0,0-39.62,4.41,18.2,18.2,0,0,0,2.85,25.59,11.26,11.26,0,0,0,15.84-1.77,6.44,6.44,0,0,0-1-9,3,3,0,0,0-2.25-.65,3.09,3.09,0,0,0-2.06,1.13l-7.22-5.76a12.32,12.32,0,0,1,17.32-1.94,15.69,15.69,0,0,1,2.45,22,20.48,20.48,0,0,1-28.82,3.2,27.44,27.44,0,0,1-4.29-38.58,37.41,37.41,0,0,1,52.61-5.85,51.75,51.75,0,0,1,8.11,72.76A74.19,74.19,0,0,1,758.71,1046.05Z"/><path class="cls-117" d="M946.89,892.8a72.59,72.59,0,0,1-13.46,8.58,51.85,51.85,0,0,1-69.35-23.49,37.47,37.47,0,0,1,17-50.15,27.5,27.5,0,0,1,36.78,12.44,20.58,20.58,0,0,1-9.31,27.49,15.71,15.71,0,0,1-21-7.11,12.35,12.35,0,0,1,5.59-16.5l4.1,8.28a3.11,3.11,0,0,0-1.4,4.13,6.47,6.47,0,0,0,8.63,2.92,11.33,11.33,0,0,0,5.11-15.11,18.25,18.25,0,0,0-24.4-8.25,28.19,28.19,0,0,0-12.79,37.77,42.59,42.59,0,0,0,57,19.3A63.14,63.14,0,0,0,958,808.52a92.77,92.77,0,0,0-124.26-42.11l-4.09-8.29A102,102,0,0,1,966.3,804.43a72.4,72.4,0,0,1-19.41,88.37Z"/><path class="cls-118" d="M1022.61,770.46A71.84,71.84,0,0,1,979,786.33a102,102,0,0,1-104.39-99.57l9.24-.22a92.76,92.76,0,0,0,94.94,90.55,63.13,63.13,0,0,0,61.64-64.62A42.52,42.52,0,0,0,997,671a28.18,28.18,0,0,0-27.5,28.86,18.19,18.19,0,0,0,18.62,17.78,11.32,11.32,0,0,0,11-11.55,6.45,6.45,0,0,0-6.59-6.27,3.05,3.05,0,0,0-2.15,1,3,3,0,0,0-.84,2.17l-9.24.25a12.31,12.31,0,0,1,12-12.61,15.7,15.7,0,0,1,16,15.29,20.56,20.56,0,0,1-20,21A27.44,27.44,0,0,1,960.21,700a37.43,37.43,0,0,1,36.53-38.31,51.76,51.76,0,0,1,53,50.54,71.91,71.91,0,0,1-20,51.67A75.45,75.45,0,0,1,1022.61,770.46Z"/><path class="cls-119" d="M1074.33,524.31a51.84,51.84,0,0,1-53.34,7.13,37.49,37.49,0,0,1-19.21-49.33A27.44,27.44,0,0,1,1038,468a20.54,20.54,0,0,1,10.53,27,15.72,15.72,0,0,1-20.65,8.06,12.32,12.32,0,0,1-6.33-16.24l8.46,3.72a3.07,3.07,0,0,0,1.58,4.05,6.46,6.46,0,0,0,8.48-3.32,11.29,11.29,0,0,0-5.79-14.85,18.21,18.21,0,0,0-24,9.35A28.26,28.26,0,0,0,1024.71,523a42.58,42.58,0,0,0,56-21.84,63.21,63.21,0,0,0-32.41-83.21,92.79,92.79,0,0,0-122.27,47.62l-8.46-3.72a102,102,0,0,1,134.44-52.35,72.47,72.47,0,0,1,37.15,95.39A51.35,51.35,0,0,1,1074.33,524.31Z"/><path class="cls-120" d="M1046.67,390.36A102.15,102.15,0,0,1,906.2,378.25l6.93-6.11a92.78,92.78,0,0,0,130.94,8.33,63.13,63.13,0,0,0,5.69-89.12,42.52,42.52,0,0,0-60-3.83,28.17,28.17,0,0,0-2.54,39.79,18.09,18.09,0,0,0,12.51,6.15,17.88,17.88,0,0,0,13.19-4.5,11.3,11.3,0,0,0,1-15.91,6.4,6.4,0,0,0-9.08-.57,3.06,3.06,0,0,0-.27,4.32l-6.92,6.12a12.3,12.3,0,0,1,1.1-17.37,15.69,15.69,0,0,1,22.12,1.39,20.55,20.55,0,0,1-1.83,29,27.45,27.45,0,0,1-38.75-2.48,37.42,37.42,0,0,1,3.37-52.83,51.76,51.76,0,0,1,73.07,4.66,72.38,72.38,0,0,1-6.52,102.16C1049,388.42,1047.86,389.41,1046.67,390.36Z"/><path class="cls-121" d="M936.44,155.86a51.57,51.57,0,0,1-18,9.33,37.47,37.47,0,0,1-46.42-25.43A27.43,27.43,0,0,1,890.7,105.7a20.5,20.5,0,0,1,25.44,13.93,15.73,15.73,0,0,1-10.64,19.45,12.35,12.35,0,0,1-15.28-8.37l8.87-2.6a3.09,3.09,0,0,0,3.82,2.1,6.46,6.46,0,0,0,4.36-8,11.26,11.26,0,0,0-14-7.64,18.19,18.19,0,0,0-12.36,22.59,28.22,28.22,0,0,0,35,19.15,42.54,42.54,0,0,0,28.91-52.75,63.15,63.15,0,0,0-78.33-42.91,92.76,92.76,0,0,0-63.05,115.06l-8.87,2.59A102,102,0,0,1,863.87,51.79,72.36,72.36,0,0,1,953.64,101a52,52,0,0,1-17.2,54.89Z"/><path class="cls-122" d="M811.37,100.18a101.82,101.82,0,0,1-79.29,21.44l1.39-9.14A92.88,92.88,0,0,0,839.14,34.7a63.24,63.24,0,0,0-52.93-71.94A42.61,42.61,0,0,0,737.76-1.57a28,28,0,0,0,5.17,21A28,28,0,0,0,761.4,30.53a18,18,0,0,0,13.52-3.33,18.35,18.35,0,0,0,7.22-11.94,11.31,11.31,0,0,0-9.46-12.84,6.45,6.45,0,0,0-7.33,5.4,3.08,3.08,0,0,0,2.57,3.49l-1.37,9.14a12.31,12.31,0,0,1-10.34-14A15.7,15.7,0,0,1,774.06-6.71a20.55,20.55,0,0,1,17.2,23.36,27.45,27.45,0,0,1-31.27,23,37.17,37.17,0,0,1-24.52-14.81A37.19,37.19,0,0,1,728.61-3a51.85,51.85,0,0,1,59-43.41,72.5,72.5,0,0,1,60.68,82.46A101.55,101.55,0,0,1,811.37,100.18Z"/><path class="cls-123" d="M518.05,40.24a101.36,101.36,0,0,1-43.42-64.9,101.32,101.32,0,0,1,15.19-76.6,71.86,71.86,0,0,1,46.05-30.81,71.91,71.91,0,0,1,54.35,10.79,51.4,51.4,0,0,1,22,32.93,51.42,51.42,0,0,1-7.7,38.86,37.49,37.49,0,0,1-51.92,10.37A27.5,27.5,0,0,1,545-77.19a20.39,20.39,0,0,1,13.05-8.74,20.4,20.4,0,0,1,15.4,3.05,15.71,15.71,0,0,1,4.34,21.74,12.34,12.34,0,0,1-17.08,3.42l5.12-7.7a3.12,3.12,0,0,0,2.32.47,3,3,0,0,0,2-1.31,6.46,6.46,0,0,0-1.78-8.94,11.18,11.18,0,0,0-8.46-1.67,11.22,11.22,0,0,0-7.17,4.8,18.25,18.25,0,0,0,5,25.26,28.25,28.25,0,0,0,39.11-7.81,42.28,42.28,0,0,0,6.33-31.93,42.22,42.22,0,0,0-18.1-27A62.75,62.75,0,0,0,537.68-123a62.79,62.79,0,0,0-40.17,26.87,92.17,92.17,0,0,0-13.82,69.66,92.18,92.18,0,0,0,39.49,59Z"/><path class="cls-124" d="M444.65,29.3A100.36,100.36,0,0,1,433.74,37l-4.81-7.89a92.86,92.86,0,0,0,30.95-127.5,63.24,63.24,0,0,0-86.79-21.07,42.24,42.24,0,0,0-19.2,26.29,42.18,42.18,0,0,0,5,32.15,28,28,0,0,0,17.43,12.75,28,28,0,0,0,21.31-3.33,18,18,0,0,0,8.23-11.26,18,18,0,0,0-2.15-13.77,11.3,11.3,0,0,0-15.5-3.76,6.46,6.46,0,0,0-2.14,8.84,3,3,0,0,0,1.9,1.38,3.06,3.06,0,0,0,2.31-.35l4.82,7.88a12.18,12.18,0,0,1-9.3,1.45,12.25,12.25,0,0,1-7.62-5.56,15.7,15.7,0,0,1,5.22-21.53,20.55,20.55,0,0,1,28.19,6.84,27.26,27.26,0,0,1,3.24,20.76,27.19,27.19,0,0,1-12.41,17,37.17,37.17,0,0,1-28.3,4.41A37.17,37.17,0,0,1,351-56.26a51.39,51.39,0,0,1-6.11-39.14,51.54,51.54,0,0,1,23.38-32,72.48,72.48,0,0,1,99.49,24.15A102.2,102.2,0,0,1,444.65,29.3Z"/><path class="cls-125" d="M69-48.43c15.72,21.13,9,53.22,9.24,53.3,0-.29-32.82-.55-50.08-20.44-17.6-20.26-10.59-54.7-10.29-54.61C17.81-70.48,53-69.95,69-48.43Z"/><path class="cls-126" d="M17.63,22.62c13.49.94,25.48-10.86,25.59-10.76-.13.07-9.32-14-22.69-16C6.9-6.14-6,6.43-5.92,6.53-6.07,6.6,3.88,21.65,17.63,22.62Z"/><path class="cls-127" d="M927,4.2c-18.08,19.15-50.85,18.07-50.88,18.36.28-.08-5.15-32.42,11.42-52.88,16.9-20.85,52-19.92,52-19.62C939.78-50,945.37-15.33,927,4.2Z"/><path class="cls-128" d="M935.89,42.77c-13.52.39-25-11.89-25.14-11.79.12.06,9.9-13.64,23.34-15.06,13.7-1.43,26.12,11.66,26,11.75C960.21,27.75,949.66,42.38,935.89,42.77Z"/></g><rect class="cls-129" x="-0.01" y="-0.02" width="940.62" height="940.62"/><path class="cls-130" d="M469.8,333.39h60.64l65.58-.06c11.51,0,23,.08,34.54,0,1.71,0,2.21.58,2.05,2.14q-.74,7.14-1.42,14.29c-.33,3.4-.67,6.81-1,10.21-.88,10.64-1.68,21.29-2.61,31.93-1.1,12.55-2.34,25.09-3.48,37.63q-1.36,14.93-2.62,29.87c-.76,8.8-1.42,17.6-2.23,26.39-1.13,12.33-2.4,24.65-3.51,37s-2,24.41-3.11,36.61c-.93,10.36-2,20.7-3,31.06s-1.72,20.6-2.62,30.9c-.72,8.12-1.55,16.22-2.28,24.34q-.78,8.6-1.41,17.19c-.14,1.86-.64,3.05-2.79,3.59-6,1.48-11.88,3.28-17.81,4.94q-17.5,4.89-35,9.75-18.1,5-36.22,10-20.49,5.65-41,11.26a5.56,5.56,0,0,1-2.8-.11c-14.45-4-28.87-8.13-43.32-12.14-12.34-3.43-24.71-6.73-37.05-10.15-14.71-4.08-29.4-8.23-44.11-12.33q-2.67-.75-5.36-1.41a2.07,2.07,0,0,1-1.8-2.11c-.94-11.19-1.95-22.38-2.93-33.56-1.1-12.55-2.18-25.09-3.31-37.64-.89-9.95-1.84-19.9-2.77-29.85-.95-10.15-1.93-20.3-2.84-30.46-.75-8.45-1.39-16.91-2.11-25.37q-1-12.08-2.12-24.15c-1-11-2.06-22.08-3.06-33.13-.65-7.16-1.2-14.33-1.84-21.5-.91-10.16-1.87-20.32-2.78-30.48-.5-5.59-.88-11.19-1.38-16.78-.36-4.09-.85-8.17-1.22-12.26-.74-8.18-1.43-16.37-2.14-24.55-.25-2.93-.46-5.86-.78-8.79-.19-1.77.38-2.38,2.24-2.37,16.24.07,32.48,0,48.72,0h112Zm13.82,125.83v59.23c0,2.92,0,2.92,3,2.93h41.95c1.21,0,2.31-.15,2.13,1.76-.71,7.7-1.25,15.42-1.93,23.13-.73,8.32-1.6,16.63-2.28,25a2.72,2.72,0,0,1-2.33,2.81c-12.75,3.49-25.47,7.1-38.24,10.55-1.73.47-2.32,1.16-2.31,2.92.06,13,0,25.91,0,38.87,0,2.42.14,2.57,2.45,1.93,6.74-1.85,13.46-3.78,20.19-5.64q28.62-7.9,57.27-15.76a2.51,2.51,0,0,0,2.19-2.5c.46-5.6,1-11.18,1.53-16.77q1.61-17.89,3.2-35.8l2.13-23.93q.93-10.44,1.85-20.87c.74-8.32,1.53-16.63,2.22-25,.22-2.7.09-2.73-2.64-2.73-15.22,0-30.43,0-45.65,0-2.06,0-2.71-.55-2.69-2.66.09-11.58,0-23.17.05-34.76,0-2.88,0-2.88,3-2.88h48.53a4.37,4.37,0,0,0,1.82-.07c.65-.35,1.46-1,1.6-1.61a35.82,35.82,0,0,0,.3-4.3c1-11,2.06-21.94,3-32.92.28-3.1.16-3.15-2.86-3.15H486.59c-2.95,0-2.95,0-2.95,3Q483.61,429.6,483.62,459.22Zm-39.1,169.41c.07-1.17.16-2.1.16-3q0-112.89,0-225.77c0-2.74,0-2.75-2.73-2.75H406.39c-3.71,0-3.72,0-3.72,3.63V574.39l-43.41-11.23c.12,2.12.16,3.81.31,5.5,1.05,11.87,2.15,23.74,3.15,35.61a2.3,2.3,0,0,0,1.94,2.43c3.58.92,7.14,1.95,10.7,2.94l66.75,18.47C442.83,628.3,443.55,628.42,444.52,628.63Z"/></g></svg>