<svg xmlns="http://www.w3.org/2000/svg" width="104" height="815" viewBox="0 0 104 815"><defs><linearGradient id="a" x1="158.4" x2="19.9" y1="713" y2="851.5" gradientUnits="userSpaceOnUse"><stop offset="0" stop-color="#be965d"/><stop offset=".3" stop-color="#976f40"/><stop offset=".4" stop-color="#c99b61"/><stop offset=".6" stop-color="#f0be7b"/><stop offset=".6" stop-color="#ffcb85"/><stop offset=".7" stop-color="#eebc79"/><stop offset=".9" stop-color="#c0935b"/><stop offset="1" stop-color="#976f40"/></linearGradient><linearGradient id="b" x1="35789.4" x2="40400.9" y1="-8533.2" y2="-6477.7" gradientUnits="userSpaceOnUse"><stop offset="0" stop-color="#be965d"/><stop offset=".3" stop-color="#976f40"/><stop offset=".4" stop-color="#c99b61"/><stop offset=".6" stop-color="#f0be7b"/><stop offset=".6" stop-color="#ffcb85"/><stop offset=".7" stop-color="#eebc79"/><stop offset=".9" stop-color="#c0935b"/><stop offset="1" stop-color="#976f40"/></linearGradient><linearGradient id="c" x1="64494.3" x2="72797.9" y1="-13915.7" y2="-10683.9" gradientUnits="userSpaceOnUse"><stop offset="0" stop-color="#be965d"/><stop offset=".3" stop-color="#976f40"/><stop offset=".4" stop-color="#c99b61"/><stop offset=".6" stop-color="#f0be7b"/><stop offset=".6" stop-color="#ffcb85"/><stop offset=".7" stop-color="#eebc79"/><stop offset=".9" stop-color="#c0935b"/><stop offset="1" stop-color="#976f40"/></linearGradient><linearGradient id="d" x1="33346.2" x2="37586.8" y1="-5710.1" y2="-4310.2" gradientUnits="userSpaceOnUse"><stop offset="0" stop-color="#be965d"/><stop offset=".3" stop-color="#976f40"/><stop offset=".4" stop-color="#c99b61"/><stop offset=".6" stop-color="#f0be7b"/><stop offset=".6" stop-color="#ffcb85"/><stop offset=".7" stop-color="#eebc79"/><stop offset=".9" stop-color="#c0935b"/><stop offset="1" stop-color="#976f40"/></linearGradient><linearGradient id="e" x1="3441.9" x2="3882.2" y1="-1176.4" y2="-736.1" gradientUnits="userSpaceOnUse"><stop offset="0" stop-color="#be965d"/><stop offset=".3" stop-color="#976f40"/><stop offset=".4" stop-color="#c99b61"/><stop offset=".6" stop-color="#f0be7b"/><stop offset=".6" stop-color="#ffcb85"/><stop offset=".7" stop-color="#eebc79"/><stop offset=".9" stop-color="#c0935b"/><stop offset="1" stop-color="#976f40"/></linearGradient><linearGradient id="f" x1="4876.1" x2="5504.8" y1="-2002.8" y2="-1374.2" gradientUnits="userSpaceOnUse"><stop offset="0" stop-color="#be965d"/><stop offset=".3" stop-color="#976f40"/><stop offset=".4" stop-color="#c99b61"/><stop offset=".6" stop-color="#f0be7b"/><stop offset=".6" stop-color="#ffcb85"/><stop offset=".7" stop-color="#eebc79"/><stop offset=".9" stop-color="#c0935b"/><stop offset="1" stop-color="#976f40"/></linearGradient><linearGradient id="g" x1="3448" x2="3888.4" y1="-1183.9" y2="-743.5" gradientUnits="userSpaceOnUse"><stop offset="0" stop-color="#be965d"/><stop offset=".3" stop-color="#976f40"/><stop offset=".4" stop-color="#c99b61"/><stop offset=".6" stop-color="#f0be7b"/><stop offset=".6" stop-color="#ffcb85"/><stop offset=".7" stop-color="#eebc79"/><stop offset=".9" stop-color="#c0935b"/><stop offset="1" stop-color="#976f40"/></linearGradient><linearGradient id="h" x1="3454.1" x2="3894.4" y1="-1191.3" y2="-751" gradientUnits="userSpaceOnUse"><stop offset="0" stop-color="#be965d"/><stop offset=".3" stop-color="#976f40"/><stop offset=".4" stop-color="#c99b61"/><stop offset=".6" stop-color="#f0be7b"/><stop offset=".6" stop-color="#ffcb85"/><stop offset=".7" stop-color="#eebc79"/><stop offset=".9" stop-color="#c0935b"/><stop offset="1" stop-color="#976f40"/></linearGradient><linearGradient id="i" x1="3460.3" x2="3900.7" y1="-1198.8" y2="-758.5" gradientUnits="userSpaceOnUse"><stop offset="0" stop-color="#be965d"/><stop offset=".3" stop-color="#976f40"/><stop offset=".4" stop-color="#c99b61"/><stop offset=".6" stop-color="#f0be7b"/><stop offset=".6" stop-color="#ffcb85"/><stop offset=".7" stop-color="#eebc79"/><stop offset=".9" stop-color="#c0935b"/><stop offset="1" stop-color="#976f40"/></linearGradient><linearGradient id="j" x1="3466.5" x2="3906.8" y1="-1206.2" y2="-765.9" gradientUnits="userSpaceOnUse"><stop offset="0" stop-color="#be965d"/><stop offset=".3" stop-color="#976f40"/><stop offset=".4" stop-color="#c99b61"/><stop offset=".6" stop-color="#f0be7b"/><stop offset=".6" stop-color="#ffcb85"/><stop offset=".7" stop-color="#eebc79"/><stop offset=".9" stop-color="#c0935b"/><stop offset="1" stop-color="#976f40"/></linearGradient><linearGradient id="k" x1="15385.8" x2="17420.9" y1="-21108.1" y2="-16026.4" gradientUnits="userSpaceOnUse"><stop offset="0" stop-color="#be965d"/><stop offset=".3" stop-color="#976f40"/><stop offset=".4" stop-color="#c99b61"/><stop offset=".6" stop-color="#f0be7b"/><stop offset=".6" stop-color="#ffcb85"/><stop offset=".7" stop-color="#eebc79"/><stop offset=".9" stop-color="#c0935b"/><stop offset="1" stop-color="#976f40"/></linearGradient><linearGradient id="l" x1="15435.2" x2="17493" y1="-18836.7" y2="-14223.3" gradientUnits="userSpaceOnUse"><stop offset="0" stop-color="#be965d"/><stop offset=".3" stop-color="#976f40"/><stop offset=".4" stop-color="#c99b61"/><stop offset=".6" stop-color="#f0be7b"/><stop offset=".6" stop-color="#ffcb85"/><stop offset=".7" stop-color="#eebc79"/><stop offset=".9" stop-color="#c0935b"/><stop offset="1" stop-color="#976f40"/></linearGradient><linearGradient id="m" x1="24189.4" x2="27426.7" y1="-34458.5" y2="-26148.4" gradientUnits="userSpaceOnUse"><stop offset="0" stop-color="#be965d"/><stop offset=".3" stop-color="#976f40"/><stop offset=".4" stop-color="#c99b61"/><stop offset=".6" stop-color="#f0be7b"/><stop offset=".6" stop-color="#ffcb85"/><stop offset=".7" stop-color="#eebc79"/><stop offset=".9" stop-color="#c0935b"/><stop offset="1" stop-color="#976f40"/></linearGradient><linearGradient id="n" x1="10333.8" x2="11728.2" y1="-16805" y2="-12568.6" gradientUnits="userSpaceOnUse"><stop offset="0" stop-color="#be965d"/><stop offset=".3" stop-color="#976f40"/><stop offset=".4" stop-color="#c99b61"/><stop offset=".6" stop-color="#f0be7b"/><stop offset=".6" stop-color="#ffcb85"/><stop offset=".7" stop-color="#eebc79"/><stop offset=".9" stop-color="#c0935b"/><stop offset="1" stop-color="#976f40"/></linearGradient><linearGradient id="o" x1="3393.2" x2="3833.6" y1="-1127.8" y2="-687.5" gradientUnits="userSpaceOnUse"><stop offset="0" stop-color="#be965d"/><stop offset=".3" stop-color="#976f40"/><stop offset=".4" stop-color="#c99b61"/><stop offset=".6" stop-color="#f0be7b"/><stop offset=".6" stop-color="#ffcb85"/><stop offset=".7" stop-color="#eebc79"/><stop offset=".9" stop-color="#c0935b"/><stop offset="1" stop-color="#976f40"/></linearGradient><linearGradient id="p" x1="4826.5" x2="5455.2" y1="-1953.2" y2="-1324.6" gradientUnits="userSpaceOnUse"><stop offset="0" stop-color="#be965d"/><stop offset=".3" stop-color="#976f40"/><stop offset=".4" stop-color="#c99b61"/><stop offset=".6" stop-color="#f0be7b"/><stop offset=".6" stop-color="#ffcb85"/><stop offset=".7" stop-color="#eebc79"/><stop offset=".9" stop-color="#c0935b"/><stop offset="1" stop-color="#976f40"/></linearGradient><linearGradient id="q" x1="3385.8" x2="3826.1" y1="-1121.7" y2="-681.3" gradientUnits="userSpaceOnUse"><stop offset="0" stop-color="#be965d"/><stop offset=".3" stop-color="#976f40"/><stop offset=".4" stop-color="#c99b61"/><stop offset=".6" stop-color="#f0be7b"/><stop offset=".6" stop-color="#ffcb85"/><stop offset=".7" stop-color="#eebc79"/><stop offset=".9" stop-color="#c0935b"/><stop offset="1" stop-color="#976f40"/></linearGradient><linearGradient id="r" x1="3378.3" x2="3818.7" y1="-1115.5" y2="-675.2" gradientUnits="userSpaceOnUse"><stop offset="0" stop-color="#be965d"/><stop offset=".3" stop-color="#976f40"/><stop offset=".4" stop-color="#c99b61"/><stop offset=".6" stop-color="#f0be7b"/><stop offset=".6" stop-color="#ffcb85"/><stop offset=".7" stop-color="#eebc79"/><stop offset=".9" stop-color="#c0935b"/><stop offset="1" stop-color="#976f40"/></linearGradient><linearGradient id="s" x1="3370.9" x2="3811.2" y1="-1109.3" y2="-669" gradientUnits="userSpaceOnUse"><stop offset="0" stop-color="#be965d"/><stop offset=".3" stop-color="#976f40"/><stop offset=".4" stop-color="#c99b61"/><stop offset=".6" stop-color="#f0be7b"/><stop offset=".6" stop-color="#ffcb85"/><stop offset=".7" stop-color="#eebc79"/><stop offset=".9" stop-color="#c0935b"/><stop offset="1" stop-color="#976f40"/></linearGradient><linearGradient id="t" x1="3363.4" x2="3803.8" y1="-1103.1" y2="-662.8" gradientUnits="userSpaceOnUse"><stop offset="0" stop-color="#be965d"/><stop offset=".3" stop-color="#976f40"/><stop offset=".4" stop-color="#c99b61"/><stop offset=".6" stop-color="#f0be7b"/><stop offset=".6" stop-color="#ffcb85"/><stop offset=".7" stop-color="#eebc79"/><stop offset=".9" stop-color="#c0935b"/><stop offset="1" stop-color="#976f40"/></linearGradient><linearGradient id="u" x1="19149.6" x2="21656.1" y1="-10210.7" y2="-7704.3" gradientUnits="userSpaceOnUse"><stop offset="0" stop-color="#be965d"/><stop offset=".3" stop-color="#976f40"/><stop offset=".4" stop-color="#c99b61"/><stop offset=".6" stop-color="#f0be7b"/><stop offset=".6" stop-color="#ffcb85"/><stop offset=".7" stop-color="#eebc79"/><stop offset=".9" stop-color="#c0935b"/><stop offset="1" stop-color="#976f40"/></linearGradient><linearGradient id="v" x1="7277.9" x2="12359.8" y1="-9068.3" y2="-7032.3" gradientUnits="userSpaceOnUse"><stop offset="0" stop-color="#be965d"/><stop offset=".3" stop-color="#976f40"/><stop offset=".4" stop-color="#c99b61"/><stop offset=".6" stop-color="#f0be7b"/><stop offset=".6" stop-color="#ffcb85"/><stop offset=".7" stop-color="#eebc79"/><stop offset=".9" stop-color="#c0935b"/><stop offset="1" stop-color="#976f40"/></linearGradient><linearGradient id="w" x1="6868.4" x2="11482.4" y1="-9258.5" y2="-7207" gradientUnits="userSpaceOnUse"><stop offset="0" stop-color="#be965d"/><stop offset=".3" stop-color="#976f40"/><stop offset=".4" stop-color="#c99b61"/><stop offset=".6" stop-color="#f0be7b"/><stop offset=".6" stop-color="#ffcb85"/><stop offset=".7" stop-color="#eebc79"/><stop offset=".9" stop-color="#c0935b"/><stop offset="1" stop-color="#976f40"/></linearGradient><linearGradient id="x" x1="12407.7" x2="20712.7" y1="-14605" y2="-11377.3" gradientUnits="userSpaceOnUse"><stop offset="0" stop-color="#be965d"/><stop offset=".3" stop-color="#976f40"/><stop offset=".4" stop-color="#c99b61"/><stop offset=".6" stop-color="#f0be7b"/><stop offset=".6" stop-color="#ffcb85"/><stop offset=".7" stop-color="#eebc79"/><stop offset=".9" stop-color="#c0935b"/><stop offset="1" stop-color="#976f40"/></linearGradient><linearGradient id="y" x1="6748.9" x2="10989.4" y1="-6473.3" y2="-5072" gradientUnits="userSpaceOnUse"><stop offset="0" stop-color="#be965d"/><stop offset=".3" stop-color="#976f40"/><stop offset=".4" stop-color="#c99b61"/><stop offset=".6" stop-color="#f0be7b"/><stop offset=".6" stop-color="#ffcb85"/><stop offset=".7" stop-color="#eebc79"/><stop offset=".9" stop-color="#c0935b"/><stop offset="1" stop-color="#976f40"/></linearGradient><linearGradient id="z" x1="682.6" x2="1122.9" y1="-1940.3" y2="-1499.9" gradientUnits="userSpaceOnUse"><stop offset="0" stop-color="#be965d"/><stop offset=".3" stop-color="#976f40"/><stop offset=".4" stop-color="#c99b61"/><stop offset=".6" stop-color="#f0be7b"/><stop offset=".6" stop-color="#ffcb85"/><stop offset=".7" stop-color="#eebc79"/><stop offset=".9" stop-color="#c0935b"/><stop offset="1" stop-color="#976f40"/></linearGradient><linearGradient id="A" x1="931.7" x2="1557.6" y1="-2745.4" y2="-2119.5" gradientUnits="userSpaceOnUse"><stop offset="0" stop-color="#be965d"/><stop offset=".3" stop-color="#976f40"/><stop offset=".4" stop-color="#c99b61"/><stop offset=".6" stop-color="#f0be7b"/><stop offset=".6" stop-color="#ffcb85"/><stop offset=".7" stop-color="#eebc79"/><stop offset=".9" stop-color="#c0935b"/><stop offset="1" stop-color="#976f40"/></linearGradient><linearGradient id="B" x1="688.8" x2="1129.1" y1="-1952.7" y2="-1512.3" gradientUnits="userSpaceOnUse"><stop offset="0" stop-color="#be965d"/><stop offset=".3" stop-color="#976f40"/><stop offset=".4" stop-color="#c99b61"/><stop offset=".6" stop-color="#f0be7b"/><stop offset=".6" stop-color="#ffcb85"/><stop offset=".7" stop-color="#eebc79"/><stop offset=".9" stop-color="#c0935b"/><stop offset="1" stop-color="#976f40"/></linearGradient><linearGradient id="C" x1="694.9" x2="1135.2" y1="-1965.3" y2="-1524.9" gradientUnits="userSpaceOnUse"><stop offset="0" stop-color="#be965d"/><stop offset=".3" stop-color="#976f40"/><stop offset=".4" stop-color="#c99b61"/><stop offset=".6" stop-color="#f0be7b"/><stop offset=".6" stop-color="#ffcb85"/><stop offset=".7" stop-color="#eebc79"/><stop offset=".9" stop-color="#c0935b"/><stop offset="1" stop-color="#976f40"/></linearGradient><linearGradient id="D" x1="701.1" x2="1141.4" y1="-1977.5" y2="-1537.1" gradientUnits="userSpaceOnUse"><stop offset="0" stop-color="#be965d"/><stop offset=".3" stop-color="#976f40"/><stop offset=".4" stop-color="#c99b61"/><stop offset=".6" stop-color="#f0be7b"/><stop offset=".6" stop-color="#ffcb85"/><stop offset=".7" stop-color="#eebc79"/><stop offset=".9" stop-color="#c0935b"/><stop offset="1" stop-color="#976f40"/></linearGradient><linearGradient id="E" x1="707.3" x2="1147.6" y1="-1989.9" y2="-1549.6" gradientUnits="userSpaceOnUse"><stop offset="0" stop-color="#be965d"/><stop offset=".3" stop-color="#976f40"/><stop offset=".4" stop-color="#c99b61"/><stop offset=".6" stop-color="#f0be7b"/><stop offset=".6" stop-color="#ffcb85"/><stop offset=".7" stop-color="#eebc79"/><stop offset=".9" stop-color="#c0935b"/><stop offset="1" stop-color="#976f40"/></linearGradient><linearGradient id="F" x1="2598.7" x2="4615.5" y1="-21755.5" y2="-16669.8" gradientUnits="userSpaceOnUse"><stop offset="0" stop-color="#be965d"/><stop offset=".3" stop-color="#976f40"/><stop offset=".4" stop-color="#c99b61"/><stop offset=".6" stop-color="#f0be7b"/><stop offset=".6" stop-color="#ffcb85"/><stop offset=".7" stop-color="#eebc79"/><stop offset=".9" stop-color="#c0935b"/><stop offset="1" stop-color="#976f40"/></linearGradient><linearGradient id="G" x1="2523" x2="4575.9" y1="-19432.9" y2="-14821.4" gradientUnits="userSpaceOnUse"><stop offset="0" stop-color="#be965d"/><stop offset=".3" stop-color="#976f40"/><stop offset=".4" stop-color="#c99b61"/><stop offset=".6" stop-color="#f0be7b"/><stop offset=".6" stop-color="#ffcb85"/><stop offset=".7" stop-color="#eebc79"/><stop offset=".9" stop-color="#c0935b"/><stop offset="1" stop-color="#976f40"/></linearGradient><linearGradient id="H" x1="3877.9" x2="7108.9" y1="-34930.4" y2="-26627.9" gradientUnits="userSpaceOnUse"><stop offset="0" stop-color="#be965d"/><stop offset=".3" stop-color="#976f40"/><stop offset=".4" stop-color="#c99b61"/><stop offset=".6" stop-color="#f0be7b"/><stop offset=".6" stop-color="#ffcb85"/><stop offset=".7" stop-color="#eebc79"/><stop offset=".9" stop-color="#c0935b"/><stop offset="1" stop-color="#976f40"/></linearGradient><linearGradient id="I" x1="1587.9" x2="2980.9" y1="-17348.8" y2="-13112.7" gradientUnits="userSpaceOnUse"><stop offset="0" stop-color="#be965d"/><stop offset=".3" stop-color="#976f40"/><stop offset=".4" stop-color="#c99b61"/><stop offset=".6" stop-color="#f0be7b"/><stop offset=".6" stop-color="#ffcb85"/><stop offset=".7" stop-color="#eebc79"/><stop offset=".9" stop-color="#c0935b"/><stop offset="1" stop-color="#976f40"/></linearGradient><linearGradient id="J" x1="634" x2="1074.4" y1="-1847.1" y2="-1406.8" gradientUnits="userSpaceOnUse"><stop offset="0" stop-color="#be965d"/><stop offset=".3" stop-color="#976f40"/><stop offset=".4" stop-color="#c99b61"/><stop offset=".6" stop-color="#f0be7b"/><stop offset=".6" stop-color="#ffcb85"/><stop offset=".7" stop-color="#eebc79"/><stop offset=".9" stop-color="#c0935b"/><stop offset="1" stop-color="#976f40"/></linearGradient><linearGradient id="K" x1="882.4" x2="1508.3" y1="-2668.1" y2="-2042.2" gradientUnits="userSpaceOnUse"><stop offset="0" stop-color="#be965d"/><stop offset=".3" stop-color="#976f40"/><stop offset=".4" stop-color="#c99b61"/><stop offset=".6" stop-color="#f0be7b"/><stop offset=".6" stop-color="#ffcb85"/><stop offset=".7" stop-color="#eebc79"/><stop offset=".9" stop-color="#c0935b"/><stop offset="1" stop-color="#976f40"/></linearGradient><linearGradient id="L" x1="626.6" x2="1066.9" y1="-1833.4" y2="-1393.1" gradientUnits="userSpaceOnUse"><stop offset="0" stop-color="#be965d"/><stop offset=".3" stop-color="#976f40"/><stop offset=".4" stop-color="#c99b61"/><stop offset=".6" stop-color="#f0be7b"/><stop offset=".6" stop-color="#ffcb85"/><stop offset=".7" stop-color="#eebc79"/><stop offset=".9" stop-color="#c0935b"/><stop offset="1" stop-color="#976f40"/></linearGradient><linearGradient id="M" x1="619.1" x2="1059.5" y1="-1819.7" y2="-1379.4" gradientUnits="userSpaceOnUse"><stop offset="0" stop-color="#be965d"/><stop offset=".3" stop-color="#976f40"/><stop offset=".4" stop-color="#c99b61"/><stop offset=".6" stop-color="#f0be7b"/><stop offset=".6" stop-color="#ffcb85"/><stop offset=".7" stop-color="#eebc79"/><stop offset=".9" stop-color="#c0935b"/><stop offset="1" stop-color="#976f40"/></linearGradient><linearGradient id="N" x1="611.7" x2="1052" y1="-1806" y2="-1365.6" gradientUnits="userSpaceOnUse"><stop offset="0" stop-color="#be965d"/><stop offset=".3" stop-color="#976f40"/><stop offset=".4" stop-color="#c99b61"/><stop offset=".6" stop-color="#f0be7b"/><stop offset=".6" stop-color="#ffcb85"/><stop offset=".7" stop-color="#eebc79"/><stop offset=".9" stop-color="#c0935b"/><stop offset="1" stop-color="#976f40"/></linearGradient><linearGradient id="O" x1="604.2" x2="1044.5" y1="-1792.3" y2="-1351.9" gradientUnits="userSpaceOnUse"><stop offset="0" stop-color="#be965d"/><stop offset=".3" stop-color="#976f40"/><stop offset=".4" stop-color="#c99b61"/><stop offset=".6" stop-color="#f0be7b"/><stop offset=".6" stop-color="#ffcb85"/><stop offset=".7" stop-color="#eebc79"/><stop offset=".9" stop-color="#c0935b"/><stop offset="1" stop-color="#976f40"/></linearGradient><linearGradient id="P" x1="3431.6" x2="5939.4" y1="-10954.5" y2="-8446.8" gradientUnits="userSpaceOnUse"><stop offset="0" stop-color="#be965d"/><stop offset=".3" stop-color="#976f40"/><stop offset=".4" stop-color="#c99b61"/><stop offset=".6" stop-color="#f0be7b"/><stop offset=".6" stop-color="#ffcb85"/><stop offset=".7" stop-color="#eebc79"/><stop offset=".9" stop-color="#c0935b"/><stop offset="1" stop-color="#976f40"/></linearGradient></defs><path d="M74.5 800.6h-.3l-.2.1-.3.1h-.2l-3.3 1.6-1 .6-4.6 3a28 28 0 0 1-13.2 4h-3.3l.9-.3a30 30 0 0 0 13.5-6.7q2-1.6 4-3.6l2.5-1.9 2.7-1.4.3-.2.4-.1.4-.1.4-.1.4-.1.4-.1h.5l.4-.1a11 11 0 0 1 4 .3 10 10 0 0 1 3.4 1.9l1 1a8 8 0 0 1 1.5 3.6v2.4l-.2.3v.2l-.1.3-.2.2-.5 1-.8.8-.9.7-1 .5h-.5l-.2.1H80l-.2.1a3.5 3.5 0 0 1-3.5-3.3 3.5 3.5 0 0 1 3-3.6v-.2l-.2-.2-.2-.2-.2-.1-.3-.2-.3-.1-.3-.2h-.3l-.8-.2h-.4l-.5-.1h-.6l-.3.2h-.2z" style="fill:url(#a)"/><path d="m34.3 810.2-1.9-.2-.7-.1 2.5-.5 1.5-.4 1.5-.4 1.5-.4 1.5-.5 5.5-2.3 1.8-.8q3.8-1.9 6.8-3.9c4-2.5 6.2-4.1 7.6-4.8 1.5-.6 2.1-.4 2.7.1q1 .6-.1 2.7l-.2.3-.2.3-.3.3-.2.3-.3.4-.4.4-.7.8-.6.4-.5.5-.5.4-.6.5a34 34 0 0 1-20.9 7h-4.8" style="fill:url(#b)"/><path d="m14.4 807.6 1.4.4.6.2.7.2 2 .3h3.3a29 29 0 0 0 5.5-1 23 23 0 0 0 4.7-1.8 61 61 0 0 0 6.9-4.2l6.9-5.2a96 96 0 0 1 11.7-7.7l2.8-1.1 1-.3 1-.1h2.8l1.7.6 1.5 1a6 6 0 0 1 1.4 1.9l.3.6.2 1.4-.3 1.2-.8 1.5-.3.3-.3.2-.4.3-.3.2H68l-.3.2H67h.7l.3-.2.3-.1.4-.2.8-.9.3-.4.4-1 .1-.5V792L70 791l-.9-1.2-1-.9-1.6-.6-1.6-.2a9 9 0 0 0-3.6.5l-.9.4-.9.4-.9.4-.8.5-3.5 2.2q-3.5 2.5-6.8 5.3l-6.9 5.4a41 41 0 0 1-16.6 7.3 22 22 0 0 1-7.9-.7l-.7-.3-1.4-.6-.7-.4-2-1.4q-.6-.7-.4-.8l.8.2z" style="fill:url(#c)"/><path d="M1.6 798.3A30 30 0 0 0 15 804a35 35 0 0 0 6.7.3H23l1.3-.2 2.7-.5.7-.1.7-.2.3-.1.3-.1h.4l.3-.1h.3l.3.2v.6l-.2.4-.3.3-.3.2-.3.3a11 11 0 0 1-3.1 1.3 24 24 0 0 1-15.3-1.1 23 23 0 0 1-5-2.8l-1.3-.8-1.1-1-2.1-2q-.2 0-.3-.3l-.3-.3-.3-.3-.3-.3-.4-.5.5.4z" style="fill:url(#d)"/><path d="M58 796q-1 0-1.5-1-.2-1 .4-1.7t1.7-.4a1.6 1.6 0 0 1 .9 2.1 2 2 0 0 1-1.5 1" style="fill:url(#e)"/><path d="M64 789.8a2.3 2.3 0 1 1 0 4.6 2.3 2.3 0 0 1 0-4.6" style="fill:url(#f)"/><path d="M54.2 795.3q1 0 1.5 1 .3 1-.4 1.7t-1.7.4a1.6 1.6 0 0 1-.9-2.1l.4-.5a2 2 0 0 1 1-.5" style="fill:url(#g)"/><path d="M50.4 797.8q1 0 1.5 1 .3 1-.4 1.7t-1.7.4a1.6 1.6 0 0 1-.8-2.1q0-.3.3-.5a2 2 0 0 1 1.1-.5" style="fill:url(#h)"/><path d="M46.6 800.3q1.1 0 1.5 1t-.3 1.7-1.8.3a1.6 1.6 0 0 1-.8-2l.3-.6a2 2 0 0 1 1.1-.4" style="fill:url(#i)"/><path d="M44.5 804.3q0 1.1-1 1.5t-1.8-.3a1.6 1.6 0 0 1 1.8-2.6q.3 0 .5.3t.3.5z" style="fill:url(#j)"/><path d="m93 797.5-.3.3-.4.2-.4.3-.4.2h-.3l-.2.2h-.3l-.2.1-.6.1-.6.1a7 7 0 0 1-2.5-.3l-2.2-1.2-1.1-1-1-1.2a10 10 0 0 1-1.1-3l-.2-.8v-2.9l.1-.4.2-.8.1-.4.2-.4v-.4l.2-.4a20 20 0 0 1 3.3-5.1l3.7-4 2.2-3 .6-1a37 37 0 0 0 3.2-7.2l.6-2.3.2-.9v3.3a28 28 0 0 1-3.9 13.2l-3 4.6a17 17 0 0 0-2.2 4.7v.3l-.1.2v.3l-.1.2v2.2l.1.3.2.4.2.6.2.2.6.6v.1a3.5 3.5 0 0 1 7 .4v.9l-.2.3v.1a5 5 0 0 1-1.6 2.3" style="fill:url(#k)"/><path d="m91.1 771.3-.4.7-.5.8-.5.7-.6.8-.8 1-.5.6-.5.5-.3.4q-.3 0-.4.3l-.4.4-.4.3-.3.3-.3.2-.3.2-.4.2c-1.5.9-2.1.6-2.7 0q-.9-.5 0-2.5c.7-1.5 2.3-3.6 4.8-7.7a92 92 0 0 0 7-14q.1-.7.4-1.5l.5-1.5.7-3 .5-2.5.1.6.3 2v1.5l.1 1.6v1.7a44 44 0 0 1-2.3 12 35 35 0 0 1-2.8 5.9" style="fill:url(#l)"/><path d="m89 754.7-5.4 6.8a100 100 0 0 0-8 11.2l-.5.9-.3.9-.9 2.6v1.8l.4 2.4a6 6 0 0 0 3 3q.4.3.7.2h1.8l.5-.2 1-.6.8-.8.2-.4.1-.3.1-.3.1-.3v-.4.7l-.1.4-.3.6-.3.4-.2.3-.3.3-1 .6-1 .4h-.7a4 4 0 0 1-2-.3l-1.4-1-1-1.2-.9-1.6-.4-1.8v-1a11 11 0 0 1 .5-2.9l.3-1a27 27 0 0 1 3.4-6.4q2.3-3.7 5-7.2 2.9-3.5 5.3-6.9a61 61 0 0 0 5.5-10 28 28 0 0 0 1.6-8.4v-1l-.1-1-.5-2.6q0-.3-.2-.7l-.4-1.3q-.8-2.1-1.2-2.8t-.1-.8q0-.2.7.4a11 11 0 0 1 2.7 4.8 21 21 0 0 1 .8 5v2.8a21 21 0 0 1-1.5 6.3 27 27 0 0 1-2.4 5.1 40 40 0 0 1-3.4 5.3" style="fill:url(#m)"/><path d="m92.8 734.6-.1 2.9-.2 1.4-.9 3-.4.8-.4.7-.2.3-.6.6-.3.2H89v-.1l-.1-.2v-1l.1-.3.1-.3.2-.7.2-.7.1-.7.2-.7a35 35 0 0 0-1.3-15.8 31 31 0 0 0-2-4.6l-.7-1.3-.8-1.2-.8-1.1-1-1.3-.4-.5.5.4 1.2 1a25 25 0 0 1 6.5 9.7 31 31 0 0 1 1.5 5.6z" style="fill:url(#n)"/><path d="M80.3 770.6q1 0 1.4 1t-.3 1.7-1.8.3a1.6 1.6 0 0 1-.8-2q0-.4.3-.6a2 2 0 0 1 1.2-.5" style="fill:url(#o)"/><path d="M78 775.8a2.3 2.3 0 1 1 0 4.6 2.3 2.3 0 0 1 0-4.6" style="fill:url(#p)"/><path d="M82.7 770a1.6 1.6 0 1 0 0-3.2 1.6 1.6 0 0 0 0 3.2" style="fill:url(#q)"/><path d="M85.2 766.2a1.6 1.6 0 1 0 0-3.2 1.6 1.6 0 0 0 0 3.2" style="fill:url(#r)"/><path d="M87.7 762.4a1.6 1.6 0 1 0 0-3.2 1.6 1.6 0 0 0 0 3.2" style="fill:url(#s)"/><path d="M90.2 755.5q1 0 1.4 1t-.3 1.7-1.8.3a1.6 1.6 0 0 1-.5-2.6 2 2 0 0 1 1.2-.4" style="fill:url(#t)"/><path d="M82 814.2a13 13 0 0 0 3.1-5 13 13 0 0 0 .5-6v-.8a3 3 0 0 1 .8-1.8l1.2-.7 1.3-.2h.2a13 13 0 0 0 8.7-1.7q1.2-.7 2.3-1.9a13 13 0 0 0-3.7 9v1.2a13 13 0 0 0 3.3 7.4 13 13 0 0 0-17.6.4z" style="fill:url(#u)"/><path d="M77.6 14.2h-.2L77 14H77l-.3-.2a18 18 0 0 1-4.2-2l-4.6-3a28 28 0 0 0-13.2-4h-3.3l.9.2a31 31 0 0 1 13.5 6.7q1.8 1.7 4 3.6a19 19 0 0 0 5.1 3.3l.4.2.4.1.4.1.4.1.4.1.4.1h.4l.4.1a11 11 0 0 0 3.3-.1l1.6-.5.7-.3 1.4-.8.5-.5 1-1.1a7 7 0 0 0 1.2-2.3l.3-1.2v-1.9l-.1-.5a6 6 0 0 0-3.7-4.1l-.4-.1h-.3l-.3-.1H83a3.5 3.5 0 0 0-3.5 3.2 3.5 3.5 0 0 0 3.1 3.7v.1l-.2.2-.2.2-.3.2-.8.4-.7.2-.4.1h-1.3z" style="fill:url(#v)"/><path d="M37.5 4.6q-1.2 0-1.9.3H35l2.5.5L42 6.8l1.4.5A70 70 0 0 1 57.5 14c4 2.5 6.2 4.1 7.6 4.8 1.5.6 2.1.4 2.7 0q1-.7-.1-2.8l-.2-.3-.2-.3-.2-.3-.3-.3-.3-.4-.4-.4-.4-.4-.9-.8-.5-.5-.5-.4-.6-.4a26 26 0 0 0-4.9-3 35 35 0 0 0-13.4-4 36 36 0 0 0-7.5 0" style="fill:url(#w)"/><path d="m17.6 7.2 2-.6.7-.2 2-.3h4.6A27 27 0 0 1 39.3 11l3.3 2.2 7 5.3A101 101 0 0 0 61.2 26a16 16 0 0 0 4.8 1.5h1l1.9-.1 1.7-.6 1.5-1 1-1.1.7-1.4.1-1.4-.2-1.2-.5-1-.6-.7-.3-.3-.4-.2-.4-.2-.3-.2-.3-.1h-.3l-.4-.1h.4l.3.1.3.1.3.2.4.2.3.2.3.3.5.8.3.4.1.6a4 4 0 0 1 0 2.4l-.2.5A5 5 0 0 1 71 26a7 7 0 0 1-5 .8l-1.7-.5-.9-.3-.9-.4-.9-.5-.8-.5q-1.8-1-3.5-2.2-3.4-2.4-6.9-5.3l-6.8-5.4-1.7-1.2a66 66 0 0 0-7-4 27 27 0 0 0-13-2L20 5q-.4 0-.8.2l-.7.2-.7.3-2.2 1.1-.6.5-.6.6q-.6.6-.4.7l.8-.1z" style="fill:url(#x)"/><path d="M4.8 16.5 7 14.9l1.2-.7 1.3-.7a35 35 0 0 1 6.9-2.3 35 35 0 0 1 13-.2l.7.2.7.2 1 .3h.3l.4.1h.8v-.2l.1-.1V11l-.2-.3-.3-.3-.3-.3-.3-.2-.7-.5a11 11 0 0 0-3.8-1.2 24 24 0 0 0-15.6 2.3 28 28 0 0 0-4.6 2.7l-1.1 1-2.1 2q-.9.8-1.2 1.3l-.4.4.5-.4z" style="fill:url(#y)"/><path d="M61.2 18.8q-1.1 0-1.5 1t.3 1.7a1.6 1.6 0 0 0 2.6-1.7q0-.3-.3-.5l-.5-.4z" style="fill:url(#z)"/><path d="M67.1 25a2.3 2.3 0 1 0 0-4.5 2.3 2.3 0 0 0 0 4.5" style="fill:url(#A)"/><path d="M57.4 19.5q1 0 1.5-1 .3-1-.4-1.7a1.6 1.6 0 0 0-2.6 1.7l.4.6.5.3z" style="fill:url(#B)"/><path d="M53.6 17a1.6 1.6 0 0 0 1-2.7q-.6-.7-1.7-.3-.9.4-.9 1.5l.1.6a2 2 0 0 0 1 .8z" style="fill:url(#C)"/><path d="M49.8 14.6a1.6 1.6 0 1 0 0-3.2 1.6 1.6 0 0 0 0 3.2" style="fill:url(#D)"/><path d="M47.6 10.5q0-1-1-1.5-.8-.2-1.7.4-.7.7-.3 1.7a1.6 1.6 0 0 0 2 .9 2 2 0 0 0 1-1.5" style="fill:url(#E)"/><path d="m96.2 17.3-.8-.5-.4-.3-.4-.2h-.2l-.5-.2-.3-.1-.5-.1h-.6a8 8 0 0 0-3.7.7 8 8 0 0 0-3 2.9 10 10 0 0 0-1.3 3l-.1.8v2.9l.1.4v.4l.2.4v.4l.2.4.1.4.1.4a20 20 0 0 0 3.3 5.2q2 2 3.6 4a35 35 0 0 1 5.5 9.3l1.2 4.2.2.8v-3.3a30 30 0 0 0-2.6-10.7l-.6-1.3L95 36l-3-4.6a17 17 0 0 1-2.3-5.2V26l-.1-.3V24l.2-1.1.2-.3.3-.6.2-.2.2-.2.1-.2h.2q.1 1.3 1.1 2.3t2.6 1a3.5 3.5 0 0 0 3.3-3.8v-.3l-.2-.9-.3-.7-.8-1.2z" style="fill:url(#F)"/><path d="m94.3 43.6-.5-.8-.4-.7-.6-.8-1-1.3q0-.2-.3-.5L91 39l-1.6-1.7q-.3 0-.4-.3l-.3-.2-.3-.3-.3-.2-.4-.2c-1.5-.9-2.1-.6-2.6 0q-1 .5-.1 2.6c.7 1.4 2.3 3.5 4.8 7.6q1.9 3 3.8 6.8l.9 1.8 2.2 5.5.5 1.4.5 1.5.7 3 .5 2.5.1-.6.2-1.8a29 29 0 0 0 .2-4.9 29 29 0 0 0-.7-5.9 48 48 0 0 0-2.4-8.2z" style="fill:url(#G)"/><path d="m92.2 60.1-5.4-6.8A113 113 0 0 1 79.3 43l-.5-.9a24 24 0 0 1-1.7-4.4v-1L77 36l.5-2.4.4-.7.9-1.2a5 5 0 0 1 1.7-1.1l1.3-.2h.6l.5.2 1 .4 1 .8.3.3.2.3.2.4.2.6v.4-.4l-.2-.7-.3-.7-1.2-1.2a5 5 0 0 0-3-.8l-1.3.4a6 6 0 0 0-2 1.5l-.4.7a8 8 0 0 0-1.1 3.4v2a10 10 0 0 0 .7 2.8l1.3 2.8q.9 2 2.1 3.7 2.3 3.6 5.1 7.1t5.2 7a49 49 0 0 1 6 11.5l1 4.2v1.3a19 19 0 0 1-.3 5.2l-.2.7-.1.7-.2.7-.3.6q-.8 2.1-1.2 2.8-.3.8-.1.8 0 .1.7-.3l.6-.6.5-.7.4-.7.7-1.4 1-3.3a18 18 0 0 0 .3-6 22 22 0 0 0-1-4.5A35 35 0 0 0 92.3 60" style="fill:url(#H)"/><path d="M96 80.3a24 24 0 0 0-1.2-7.4l-.4-.7-.6-1-.3-.4-.3-.2-.5-.3h-.4l-.2.3v1l.2.6.2.7.2.7.1.7.2.7q.2 1.5.3 3.1v3.1a32 32 0 0 1-6 17.8l-1 1.4-.4.4.5-.3 2.3-2.2a26 26 0 0 0 7.3-18" style="fill:url(#I)"/><path d="M83.4 44.3q1.1 0 1.5-1t-.3-1.7a1.6 1.6 0 0 0-2.6 1.7q0 .3.3.5l.5.4z" style="fill:url(#J)"/><path d="M81.1 39a2.3 2.3 0 1 0 0-4.5 2.3 2.3 0 0 0 0 4.5" style="fill:url(#K)"/><path d="M86 48a1.6 1.6 0 1 0 0-3.1 1.6 1.6 0 0 0 0 3.2" style="fill:url(#L)"/><path d="M88.4 51.8a1.6 1.6 0 1 0 0-3.1 1.6 1.6 0 0 0 0 3.1" style="fill:url(#M)"/><path d="M90.9 55.6a1.6 1.6 0 1 0 0-3.2 1.6 1.6 0 0 0 0 3.2" style="fill:url(#N)"/><path d="M93.3 59.4q1.1 0 1.5-1t-.3-1.7-1.8-.4a1.6 1.6 0 0 0-.8 2q0 .5.3.6a2 2 0 0 0 1.1.5" style="fill:url(#O)"/><path d="M85.2.6a13 13 0 0 1 3.1 5 13 13 0 0 1 .5 6v.9l.4 1.2.4.6a3 3 0 0 0 1.8.8h.9a13 13 0 0 1 8.7 1.7l2.3 1.9a13 13 0 0 1-3.7-9V8.5a12 12 0 0 1 1-4 13 13 0 0 1 2.3-3.5 13 13 0 0 1-13.7 2.3q-2.2-1-4-2.7" style="fill:url(#P)"/></svg>